<?xml version="1.0" encoding="UTF-8"?>
<svg id="Capa_2" data-name="Capa 2" xmlns="http://www.w3.org/2000/svg" viewBox="0 0 237.97 237.97" width="64" height="64">
  <defs>
    <style>
      .cls-1, .cls-2 {
        stroke: #000;
        stroke-miterlimit: 10;
        stroke-width: 5px;
      }

      .cls-2 {
        fill: #fff;
      }
    </style>
  </defs>
  <g id="airlock">
    <circle class="cls-2" cx="118.99" cy="118.99" r="116.49"/>
    <path class="cls-2" d="m201.51,118.99c0,45.58-36.95,82.52-82.52,82.52s-82.52-36.95-82.52-82.52S73.41,36.46,118.99,36.46c24.64,0,46.75,10.79,61.87,27.91,12.85,14.55,20.65,33.67,20.65,54.61Z"/>
    <path class="cls-2" d="m160.28,157.77c-10.33,11-25.01,17.87-41.29,17.87-31.29,0-56.65-25.36-56.65-56.65s25.36-56.65,56.65-56.65c16.13,0,30.68,6.74,41,17.56"/>
    <path class="cls-2" d="m171.34,140.67c-.14.33-.28.66-.42.99"/>
    <path class="cls-2" d="m114.79,139.73c-9.45-1.79-16.78-9.94-17.2-20.03-.4-9.53,5.49-17.86,13.96-20.92"/>
    <circle class="cls-2" cx="118.99" cy="118.99" r="13.51"/>
    <circle class="cls-1" cx="190.61" cy="187.53" r="4.49"/>
    <circle class="cls-1" cx="48.61" cy="185.53" r="4.49"/>
    <circle class="cls-1" cx="57.61" cy="39.53" r="4.49"/>
    <circle class="cls-1" cx="185.14" cy="40.67" r="4.49"/>
    <line class="cls-2" x1="111.61" y1="98.79" x2="111.59" y2="98.8"/>
    <line class="cls-2" x1="111.62" y1="98.79" x2="111.61" y2="98.79"/>
    <polyline class="cls-2" points="111.19 98.97 161.61 78.2 185.14 67.76"/>
    <line class="cls-2" x1="198.35" y1="141.66" x2="114.38" y2="139.68"/>
    <line class="cls-2" x1="109.05" y1="137.74" x2="185.14" y2="168.33"/>
    <polyline class="cls-1" points="28.07 47.32 55.53 65.05 44.8 82.8 14.71 67.01"/>
    <polygon class="cls-1" points="214.89 53.47 185.14 68.59 194.31 85.66 225.43 74.33 214.89 53.47"/>
    <line class="cls-2" x1="105.49" y1="118.59" x2="132.49" y2="118.59"/>
  </g>
</svg>