<?xml version="1.0" encoding="UTF-8"?>
<svg id="Capa_2" data-name="Capa 2" xmlns="http://www.w3.org/2000/svg" width="64" height="64" viewBox="0 0 258.59 173.98">
  <defs>
    <style>
      .cls-1, .cls-2 {
        stroke: #1d1d1b;
        stroke-miterlimit: 10;
        stroke-width: 10px;
      }

      .cls-2 {
        fill: #fff;
      }
    </style>
  </defs>
  <g id="ammo">
    <rect class="cls-2" x="21.78" y="16" width="216.59" height="152.98" rx="9.51" ry="9.51"/>
    <rect class="cls-1" x="5" y="11.66" width="248.59" height="12.59" rx="2.34" ry="2.34"/>
    <rect class="cls-1" x="72.8" y="5" width="110.4" height="12.2"/>
    <path class="cls-1" d="m81.88,58.78c0-9.79-11.11-17.73-11.11-17.73,0,0-11.11,7.94-11.11,17.73,0,1.3.09,2.56.26,3.78h-.26v58.56h22.22v-58.56h-.26c.17-1.22.26-2.48.26-3.78Z"/>
    <rect class="cls-2" x="59.66" y="138.87" width="22.22" height="7.38"/>
    <path class="cls-1" d="m141.88,58.78c0-9.79-11.11-17.73-11.11-17.73,0,0-11.11,7.94-11.11,17.73,0,1.3.09,2.56.26,3.78h-.26v58.56h22.22v-58.56h-.26c.17-1.22.26-2.48.26-3.78Z"/>
    <rect class="cls-2" x="119.66" y="138.87" width="22.22" height="7.38"/>
    <path class="cls-1" d="m201.88,58.78c0-9.79-11.11-17.73-11.11-17.73,0,0-11.11,7.94-11.11,17.73,0,1.3.09,2.56.26,3.78h-.26v58.56h22.22v-58.56h-.26c.17-1.22.26-2.48.26-3.78Z"/>
    <rect class="cls-2" x="179.66" y="138.87" width="22.22" height="7.38"/>
  </g>
</svg>