<?xml version="1.0" encoding="UTF-8"?>
<svg id="Capa_2" data-name="Capa 2" xmlns="http://www.w3.org/2000/svg"  width="64" height="64" viewBox="0 0 255.46 146.59">
  <defs>
    <style>
      .cls-1, .cls-2 {
        stroke-width: 5px;
      }

      .cls-1, .cls-2, .cls-3, .cls-4 {
        stroke: #1d1d1b;
        stroke-miterlimit: 10;
      }

      .cls-2, .cls-4 {
        fill: #fff;
      }

      .cls-3 {
        fill: #facd45;
      }

      .cls-3, .cls-4 {
        stroke-width: 10px;
      }
    </style>
  </defs>
  <g id="blocked_resource_box">
    <rect class="cls-3" x="5" y="5" width="245.46" height="37.46" rx="18.73" ry="18.73"/>
    <rect class="cls-4" x="12.8" y="30.76" width="228.29" height="110.83"/>
    <path class="cls-1" d="m145.24,119.97h-35.02c-4.02,0-7.29-3.26-7.29-7.29v-22.47c0-4.02,3.26-7.29,7.29-7.29h35.02c4.02,0,7.29,3.26,7.29,7.29v22.47c0,4.02-3.26,7.29-7.29,7.29Z"/>
    <path class="cls-2" d="m144.3,67.25v16.68h-35.09v-16.22c0-5.2,3.02-10.19,8.4-13.86h0c5.03-3.44,13.18-3.44,18.22-.02l.52.36c5.09,3.46,7.95,8.16,7.95,13.06Z"/>
  </g>
</svg>