<?xml version="1.0" encoding="UTF-8"?>
<svg id="Capa_2" data-name="Capa 2" xmlns="http://www.w3.org/2000/svg" width="64" height="64" viewBox="0 0 150.38 223.91">
  <defs>
    <style>
      .cls-1, .cls-2 {
        stroke-width: 5px;
      }

      .cls-1, .cls-2, .cls-3, .cls-4 {
        stroke: #1d1d1b;
        stroke-miterlimit: 10;
      }

      .cls-2, .cls-3 {
        fill: #fff;
      }

      .cls-3, .cls-4 {
        stroke-width: 10px;
      }

      .cls-4 {
        fill: none;
      }
    </style>
  </defs>
  <g id="blocked_access">
    <rect class="cls-3" x="5" y="5.78" width="140.24" height="212.49"/>
    <polyline class="cls-4" points="5 194.95 19.21 209.16 25.83 215.78"/>
    <polyline class="cls-4" points="5 194.95 19.21 209.16 25.83 215.78"/>
    <polyline class="cls-4" points="4.46 144.41 56.29 196.24 80.42 220.38"/>
    <polyline class="cls-4" points="7.73 97.68 90.37 180.32 128.85 218.8"/>
    <polyline class="cls-4" points="6.22 46.17 101.07 141.02 145.24 185.19"/>
    <polyline class="cls-4" points="16.22 6.17 103.34 93.29 143.91 133.86"/>
    <polyline class="cls-4" points="63.58 3.54 120.39 60.34 146.85 86.8"/>
    <polyline class="cls-4" points="116.22 6.17 135.11 25.07 143.91 33.86"/>
    <polyline class="cls-4" points="4.46 29.47 20.63 13.31 28.16 5.78"/>
    <polyline class="cls-4" points="7.33 76.61 53.26 30.68 74.64 9.29"/>
    <polyline class="cls-4" points="5.81 128.12 86.89 47.05 124.64 9.29"/>
    <polyline class="cls-4" points="6.94 177 100.39 83.54 143.91 40.02"/>
    <polyline class="cls-4" points="16.94 217 103.57 130.37 143.91 90.02"/>
    <polyline class="cls-4" points="65.23 218.71 118.65 165.29 143.52 140.41"/>
    <polyline class="cls-4" points="114.38 219.56 136.53 197.41 146.85 187.09"/>
    <rect class="cls-2" x="4.46" y="50.56" width="139.06" height="107.68"/>
    <path class="cls-2" d="m95.18,84.16v19.58h-41.21v-19.04c0-6.11,3.55-11.96,9.86-16.28h0c5.9-4.04,15.47-4.04,21.39-.02l.62.42c5.97,4.06,9.33,9.58,9.33,15.34Z"/>
    <path class="cls-1" d="m95.99,138.33h-41.12c-4.73,0-8.56-3.39-8.56-7.57v-23.33c0-4.18,3.83-7.57,8.56-7.57h41.12c4.73,0,8.56,3.39,8.56,7.57v23.33c0,4.18-3.83,7.57-8.56,7.57Z"/>
  </g>
</svg>