<?xml version="1.0" encoding="UTF-8"?>
<svg id="Capa_2" data-name="Capa 2" xmlns="http://www.w3.org/2000/svg" viewBox="0 0 150.38 223.91" width="64" height="64">
  <defs>
    <style>
      .cls-1, .cls-2 {
        stroke-width: 5px;
      }

      .cls-1, .cls-2, .cls-3, .cls-4 {
        stroke: #1d1d1b;
        stroke-miterlimit: 10;
      }

      .cls-2, .cls-3 {
        fill: #fff;
      }

      .cls-3, .cls-4 {
        stroke-width: 10px;
      }

      .cls-4 {
        fill: none;
      }
    </style>
  </defs>
  <g id="blocked_access" data-name="Capa 6">
    <rect class="cls-3" x="5" y="5.78" width="140.24" height="212.49"/>
    <polyline class="cls-4" points="5 194.95 19.21 209.16 25.83 215.78"/>
    <polyline class="cls-4" points="5 194.95 19.21 209.16 25.83 215.78"/>
    <polyline class="cls-4" points="4.46 144.41 56.29 196.24 80.42 220.38"/>
    <polyline class="cls-4" points="7.73 97.68 90.37 180.32 128.85 218.8"/>
    <polyline class="cls-4" points="6.22 46.17 101.07 141.02 145.24 185.19"/>
    <polyline class="cls-4" points="16.22 6.17 103.34 93.29 143.91 133.86"/>
    <polyline class="cls-4" points="63.58 3.54 120.39 60.34 146.85 86.8"/>
    <polyline class="cls-4" points="116.22 6.17 135.11 25.07 143.91 33.86"/>
    <polyline class="cls-4" points="4.46 29.47 20.63 13.31 28.16 5.78"/>
    <polyline class="cls-4" points="7.33 76.61 53.26 30.68 74.64 9.29"/>
    <polyline class="cls-4" points="5.81 128.12 86.89 47.05 124.64 9.29"/>
    <polyline class="cls-4" points="6.94 177 100.39 83.54 143.91 40.02"/>
    <polyline class="cls-4" points="16.94 217 103.57 130.37 143.91 90.02"/>
    <polyline class="cls-4" points="65.23 218.71 118.65 165.29 143.52 140.41"/>
    <polyline class="cls-4" points="114.38 219.56 136.53 197.41 146.85 187.09"/>
    <rect class="cls-2" x="85.69" y="73.43" width="61.06" height="74.1"/>
    <polygon class="cls-1" points="132.25 133.57 100.18 133.57 100.18 109.62 105.63 109.62 132.25 109.62 132.25 133.57"/>
    <path class="cls-2" d="m126.93,96.26v13.36h-22.69v-12.99c0-4.17,1.95-8.16,5.43-11.1h0c3.25-2.75,8.52-2.76,11.78-.01l.34.29c3.29,2.77,5.14,6.54,5.14,10.47Z"/>
  </g>
</svg>