<?xml version="1.0" encoding="UTF-8"?>
<svg id="Capa_2" xmlns="http://www.w3.org/2000/svg" width="64"
    height="64" viewBox="0 0 226.94 196.01">
    <defs>
        <style>
            .cls-1,
            .cls-2 {
                fill: #fff;
            }

            .cls-2,
            .cls-3 {
                stroke: #1d1d1b;
                stroke-miterlimit: 10;
                stroke-width: 10px;
            }

            .cls-3 {
                fill: none;
            }
        </style>
    </defs>
    <g id="faction_mission">
        <rect class="cls-2" x="5" y="15.74" width="26.7" height="175.27" />
        <g>
            <path class="cls-1"
                d="m221.94,138.55c-59.9,32.3-119.8-32.3-179.71,0V14.32c59.9-32.3,119.8,32.3,179.71,0v124.22Z" />
            <path class="cls-3"
                d="m221.94,138.55c-59.9,32.3-119.8-32.3-179.71,0V14.32c59.9-32.3,119.8,32.3,179.71,0v124.22Z" />
        </g>
        <polygon class="cls-2"
            points="143.67 104.06 124.92 93.99 106 103.73 109.78 82.78 94.67 67.79 115.76 64.92 125.35 45.92 134.6 65.09 155.63 68.34 140.26 83.05 143.67 104.06" />
    </g>
</svg>