<?xml version="1.0" encoding="UTF-8"?>
<svg id="Capa_1" data-name="Capa 1" xmlns="http://www.w3.org/2000/svg"  width="64"
    height="64" viewBox="0 0 23.7 61.66">
  <defs>
    <style>
      .cls-1 {
        fill: #fff;
        stroke: #000;
        stroke-miterlimit: 10;
      }
    </style>
  </defs>
  <path class="cls-1" d="m17.67,15.48v-.99h.53c.42,0,.77-.34.77-.77v-.61c0-.42-.34-.77-.77-.77h-.53v-.37s.1.02.15.02h2.3c.42,0,.77-.34.77-.77v-3.05c0-.42-.34-.77-.77-.77h-2.3c-.05,0-.1,0-.15.02V1.56h0c-.01-.59-.88-1.06-1.94-1.06s-1.93.47-1.94,1.06h0v5.3L2.66,1.82c-.63-.28-1.37,0-1.65.64l-.4.92c-.28.63,0,1.37.64,1.65l10.87,4.8-1.38-.05h-5c-.21,0-.42.03-.63.09l-1.06.3c-.41.12-.8.29-1.17.51l-.75.46c-.53.33-.74.99-.49,1.56h0c.26.59.95.86,1.54.6.22-.1.42-.19.57-.25.5-.2,1.37-.23,1.37-.23l1.9-.16c.33-.03.67-.02,1,.03l1.9.27s.08.01.12.02l2.18.46c.33.07.65.2.94.38l.61.37v1.22c-3.48.38-6.08,1.94-6.08,3.81v38.04c0,2.16,3.47,3.9,7.75,3.9s7.75-1.75,7.75-3.9V19.22c0-1.77-2.33-3.26-5.53-3.74Z"/>
</svg>