<?xml version="1.0" encoding="UTF-8"?>
<svg id="Capa_2" data-name="Capa 2" xmlns="http://www.w3.org/2000/svg" viewBox="0 0 208.95 208.95" width="64" height="64">
  <defs>
    <style>
      .cls-1 {
        fill: #1d1d1b;
        stroke-width: 2px;
      }

      .cls-1, .cls-2, .cls-3 {
        stroke: #000;
        stroke-miterlimit: 10;
      }

      .cls-2 {
        stroke-width: 7px;
      }

      .cls-2, .cls-3 {
        fill: #fff;
      }

      .cls-3 {
        stroke-width: 5px;
      }
    </style>
  </defs>
  <g id="hidden_stash">
    <path class="cls-2" d="m156.77,205.45H52.04c-48.15-48.15.32.32-48.54-48.54V3.5h201.95v153.27l-48.68,48.68Z"/>
    <rect class="cls-3" x="3.5" y="3.5" width="23.56" height="23.56"/>
    <rect class="cls-3" x="178.5" y="3.5" width="23.56" height="23.56"/>
    <rect class="cls-3" x="79.01" y="5.65" width="47.79" height="21.41"/>
    <rect class="cls-3" x="67.78" y="166.65" width="70.24" height="21.41"/>
    <rect class="cls-1" x="90.62" y="48.42" width="26.21" height="9.69" rx="4.85" ry="4.85"/>
    <rect class="cls-1" x="90.62" y="108.62" width="26.21" height="9.69" rx="4.85" ry="4.85"/>
    <rect class="cls-1" x="75.57" y="64.22" width="26.21" height="9.69" rx="4.85" ry="4.85"/>
    <rect class="cls-1" x="106.42" y="64.22" width="26.21" height="9.69" rx="4.85" ry="4.85"/>
    <rect class="cls-1" x="75.57" y="94.32" width="26.21" height="9.69" rx="4.85" ry="4.85"/>
    <rect class="cls-1" x="106.42" y="94.32" width="26.21" height="9.69" rx="4.85" ry="4.85"/>
    <rect class="cls-1" x="61.27" y="80.02" width="26.21" height="9.69" rx="4.85" ry="4.85"/>
    <rect class="cls-1" x="91.37" y="80.02" width="26.21" height="9.69" rx="4.85" ry="4.85"/>
    <rect class="cls-1" x="121.47" y="80.02" width="26.21" height="9.69" rx="4.85" ry="4.85"/>
  </g>
</svg>