<?xml version="1.0" encoding="UTF-8"?>
<svg id="Capa_2" data-name="Capa 2" xmlns="http://www.w3.org/2000/svg" width="64" height="64" viewBox="0 0 60.91 60.95">
  <defs>
    <style>
      .cls-1 {
        fill: #fff;
        stroke: #000;
        stroke-miterlimit: 10;
      }
    </style>
  </defs>
  <path class="cls-1" d="m29.32.69c-1.27.46-2.09,1.31-2.45,2.58-.21.74-.16,1.42.23,3.55l.27,1.36-1.36.27c-2.74.54-5.76,1.78-8.01,3.32l-1.15.77-.94-1.4c-1.65-2.43-2.47-2.99-4.22-2.91-1.01.05-1.65.32-2.39,1.01-1.45,1.38-1.51,3.81-.12,5.22.28.29,1.15.96,1.92,1.48l1.4.95-.77,1.15c-1.71,2.54-2.93,5.59-3.44,8.59l-.14.77-1.42-.28c-.79-.15-1.88-.29-2.43-.3-.86-.02-1.09.02-1.65.28-1.37.64-2.16,1.88-2.16,3.39s.79,2.74,2.16,3.39c.56.26.8.3,1.65.28.55-.01,1.64-.14,2.42-.3l1.42-.28.27,1.36c.53,2.73,1.77,5.71,3.32,8.01l.77,1.15-1.4.95c-2.43,1.64-2.99,2.46-2.91,4.21.05,1.04.36,1.75,1.08,2.44.75.73,1.4,1.01,2.42,1.06,1.75.08,2.57-.48,4.22-2.91l.94-1.4,1.15.77c2.25,1.54,5.26,2.78,8.01,3.32l1.36.27-.28,1.42c-.16.77-.29,1.86-.3,2.42-.02.86.02,1.09.28,1.65.64,1.37,1.88,2.16,3.39,2.16s2.74-.79,3.39-2.16c.26-.56.3-.8.28-1.65-.01-.55-.14-1.64-.3-2.42l-.28-1.42,1.36-.27c2.73-.53,5.71-1.77,8.01-3.32l1.15-.77.95,1.4c1.64,2.43,2.46,2.99,4.21,2.91,1.02-.05,1.66-.33,2.42-1.06.72-.69,1.03-1.4,1.08-2.44.08-1.75-.48-2.57-2.91-4.21l-1.4-.95.77-1.15c1.55-2.3,2.79-5.28,3.32-8.01l.27-1.36,1.42.28c.77.16,1.86.29,2.42.3.86.02,1.09-.02,1.65-.28,1.37-.64,2.16-1.88,2.16-3.39s-.79-2.74-2.16-3.39c-.56-.26-.8-.3-1.65-.28-.55.01-1.64.14-2.42.3l-1.42.28-.27-1.36c-.54-2.74-1.78-5.76-3.32-8.01l-.77-1.15,1.4-.94c2.43-1.65,2.99-2.47,2.91-4.22-.05-1.04-.36-1.75-1.08-2.44-.75-.73-1.4-1.01-2.42-1.06-1.75-.08-2.57.48-4.21,2.91l-.95,1.4-1.15-.77c-2.54-1.71-5.59-2.93-8.59-3.44l-.77-.14.28-1.42c.15-.79.29-1.88.3-2.43.02-.86-.02-1.09-.28-1.65-.81-1.71-2.83-2.61-4.53-2Zm-.74,16.82v3.78l-.79.22c-.45.13-1.18.43-1.66.68l-.88.46-2.68-2.68-2.67-2.68.86-.59c1.11-.77,2.39-1.45,3.54-1.91,1.18-.47,3.11-.95,4.09-1.04.19-.01.2.23.2,3.78Zm5.99-3.38c1.98.49,3.8,1.31,5.59,2.56l.86.59-2.67,2.68-2.68,2.67-.87-.45c-.48-.25-1.23-.55-1.66-.68l-.8-.22v-7.57l.56.07c.3.05,1.06.2,1.68.35Zm-12.42,12.03c-.25.48-.55,1.22-.68,1.65l-.22.8h-7.57l.07-.56c.34-2.43,1.38-5.05,2.91-7.27l.59-.86,2.68,2.67,2.68,2.68-.46.88Zm22.1-5.38c1.52,2.2,2.57,4.84,2.91,7.27l.07.56h-7.57l-.22-.8c-.13-.43-.43-1.17-.68-1.65l-.46-.87,2.67-2.68c1.47-1.47,2.67-2.67,2.68-2.67s.28.39.6.84Zm-22.78,12.37c.13.45.43,1.18.68,1.66l.46.88-2.68,2.68-2.68,2.67-.59-.86c-1.52-2.22-2.57-4.84-2.91-7.28l-.07-.55h7.57l.22.79Zm25.69-.23c-.34,2.44-1.38,5.06-2.91,7.28l-.59.86-2.68-2.67-2.67-2.68.45-.87c.25-.48.55-1.23.68-1.68l.22-.79h7.57l-.07.55Zm-21.02,5.87c.47.25,1.21.55,1.65.68l.79.22v7.57l-.55-.07c-2.44-.34-5.06-1.38-7.28-2.91l-.86-.59,2.67-2.68c1.47-1.47,2.68-2.67,2.7-2.67s.41.2.88.45Zm12.2,2.23l2.67,2.68-.86.59c-2.22,1.52-4.84,2.57-7.27,2.91l-.56.07v-7.57l.93-.28c.52-.15,1.24-.45,1.62-.67.38-.21.7-.39.74-.39.04-.01,1.27,1.2,2.73,2.66Z"/>
</svg>