<?xml version="1.0" encoding="UTF-8"?>
<svg id="Capa_1" data-name="Capa 1" xmlns="http://www.w3.org/2000/svg"  width="64"
    height="64" viewBox="0 0 56.84 42.52">
  <defs>
    <style>
      .cls-1 {
        fill: none;
      }

      .cls-1, .cls-2, .cls-3, .cls-4, .cls-5, .cls-6, .cls-7 {
        stroke: #000;
        stroke-miterlimit: 10;
      }

      .cls-2, .cls-3 {
        stroke-width: .5px;
      }

      .cls-2, .cls-4, .cls-6, .cls-7 {
        fill: #fff;
      }

      .cls-3, .cls-5 {
        fill: #1d1d1b;
      }

      .cls-4 {
        stroke-width: .75px;
      }

      .cls-7 {
        stroke-width: 2px;
      }
    </style>
  </defs>
  <rect class="cls-7" x="1" y="1" width="54.84" height="40.52" rx=".87" ry=".87"/>
  <path class="cls-7" d="m15.52.96v40.55"/>
  <path class="cls-7" d="m2.1,1.37v40.15"/>
  <path class="cls-7" d="m47.3,1v40.27"/>
  <path class="cls-7" d="m55.08.81v40.71"/>
  <path class="cls-7" d="m15.3,10.84h32"/>
  <path class="cls-4" d="m15.21,18.38h32.47"/>
  <path class="cls-4" d="m15.21,28.36h32.47"/>
  <path class="cls-7" d="m15.21,36.83h32"/>
  <rect class="cls-1" x="7.97" y="14.57" width="5.33" height="3.93"/>
  <rect class="cls-5" x="9.72" y="16" width="1.84" height="1.07"/>
  <rect class="cls-6" x="30.84" y="4.02" width="2.44" height="3.68" rx="1.1" ry="1.1"/>
  <rect class="cls-6" x="4.08" y="14.25" width="2.18" height="3.51" rx=".99" ry=".99"/>
  <rect class="cls-3" x="9.15" y="24.4" width=".94" height="1.87"/>
  <rect class="cls-3" x="9.31" y="23.81" width=".61" height=".99"/>
  <rect class="cls-2" x="8.76" y="21.17" width="1.78" height=".04"/>
  <rect class="cls-2" x="7.64" y="21.63" width="1.53" height=".04" transform="translate(-13.24 30.06) rotate(-90)"/>
  <rect class="cls-2" x="8.28" y="23.17" width="1.53" height=".04" transform="translate(-.96 45.98) rotate(-135)"/>
  <rect class="cls-2" x="9.43" y="23.17" width="1.53" height=".04" transform="translate(-13.41 14.01) rotate(-45)"/>
  <rect class="cls-2" x="10.07" y="21.63" width="1.53" height=".04" transform="translate(-10.81 32.49) rotate(-90)"/>
</svg>