<?xml version="1.0" encoding="UTF-8"?>
<svg id="Capa_1" data-name="Capa 1" xmlns="http://www.w3.org/2000/svg" width="64"
    height="64" viewBox="0 0 41.64 61.36">
  <defs>
    <style>
      .cls-1, .cls-2 {
        stroke: #000;
        stroke-miterlimit: 10;
      }

      .cls-2 {
        fill: #fff;
      }
    </style>
  </defs>
  <rect class="cls-2" x="33.28" y="38.33" width="10.77" height="2.39" rx=".91" ry=".91" transform="translate(-10.33 65.16) rotate(-73.25)"/>
  <rect class="cls-2" x="14.32" y=".5" width="11.3" height="20.77" rx="3.17" ry="3.17"/>
  <rect class="cls-2" x="6.37" y="10.88" width="27.19" height="49.97" rx="10.13" ry="10.13"/>
  <circle class="cls-2" cx="19.97" cy="21.27" r="6.23"/>
  <rect class="cls-2" x="17.4" y="19.19" width="5.47" height="2.76" rx="1.05" ry="1.05"/>
  <rect class="cls-2" x="10.95" y="35.71" width="5.56" height="2.56" rx=".97" ry=".97" transform="translate(-22.13 20.54) rotate(-45)"/>
  <rect class="cls-2" x="10.86" y="36.13" width="5.56" height="2.56" rx=".97" ry=".97" transform="translate(-22.46 20.6) rotate(-45)"/>
  <circle class="cls-2" cx="16.14" cy="34.25" r="2.39"/>
  <rect class="cls-2" x="22.74" y="35.37" width="5.56" height="2.56" rx=".97" ry=".97" transform="translate(17.65 80.62) rotate(-135)"/>
  <circle class="cls-2" cx="22.36" cy="34.16" r="2.39"/>
  <rect class="cls-1" x="14.21" y="45.02" width="10.58" height="6.05"/>
  <rect class="cls-2" x="33.96" y="44.31" width="5.48" height="3.56" transform="translate(-18.01 67.94) rotate(-73.25)"/>
  <rect class="cls-2" x="-2.9" y="38.87" width="10.77" height="2.39" rx=".91" ry=".91" transform="translate(-36.51 49.63) rotate(-100.23)"/>
  <rect class="cls-2" x=".97" y="45.03" width="5.48" height="3.56" transform="translate(-41.7 58.77) rotate(-100.23)"/>
  <rect class="cls-2" x="32.19" y="46.26" width="5.48" height="3.56"/>
  <rect class="cls-2" x="2.34" y="46.26" width="5.48" height="3.56"/>
</svg>