<?xml version="1.0" encoding="UTF-8"?>
<svg id="Capa_2" data-name="Capa 2" xmlns="http://www.w3.org/2000/svg" viewBox="0 0 243.14 237.97" width="64" height="64">
  <defs>
    <style>
      .cls-1, .cls-2, .cls-3, .cls-4, .cls-5 {
        stroke: #000;
        stroke-miterlimit: 10;
      }

      .cls-1, .cls-5 {
        stroke-width: 5px;
      }

      .cls-6, .cls-3, .cls-5 {
        fill: #fff;
      }

      .cls-2, .cls-4 {
        fill: none;
        stroke-linecap: round;
        stroke-width: 10px;
      }

      .cls-3 {
        stroke-width: 7px;
      }

      .cls-4 {
        stroke-dasharray: 0 0 0 30.3;
      }
    </style>
  </defs>
  <g id="vault">
    <circle class="cls-5" cx="118.99" cy="118.99" r="116.49"/>
    <g>
      <path class="cls-6" d="m190.09,190.63c-18.24,18.11-43.37,29.29-71.1,29.29-55.75,0-100.94-45.19-100.94-100.94S63.24,18.05,118.99,18.05c30.13,0,57.18,13.2,75.68,34.14.72.82,1.43,1.65,2.13,2.49"/>
      <g>
        <line class="cls-2" x1="190.09" y1="190.63" x2="190.09" y2="190.63"/>
        <path class="cls-4" d="m165.72,208.47c-13.97,7.31-29.87,11.45-46.74,11.45-55.75,0-100.94-45.19-100.94-100.94S63.24,18.05,118.99,18.05c25.86,0,49.45,9.73,67.31,25.72"/>
        <line class="cls-2" x1="196.79" y1="54.68" x2="196.79" y2="54.68"/>
      </g>
    </g>
    <path class="cls-5" d="m201.51,118.99c0,45.58-36.95,82.52-82.52,82.52s-82.52-36.95-82.52-82.52S73.41,36.46,118.99,36.46c24.64,0,46.75,10.79,61.87,27.91,12.85,14.55,20.65,33.67,20.65,54.61Z"/>
    <rect class="cls-3" x="182.21" y="159.14" width="49.56" height="21.47" transform="translate(74.81 -63) rotate(21.05)"/>
    <line class="cls-5" x1="134.44" y1="37.58" x2="105.02" y2="201.52"/>
    <line class="cls-5" x1="62.57" y1="58.76" x2="175.28" y2="179.32"/>
    <path class="cls-5" d="m36.46,113.7l165.04,10.74"/>
    <rect class="cls-3" x="190.09" y="113.7" width="49.56" height="21.47"/>
    <line class="cls-5" x1="54.02" y1="169.88" x2="184.67" y2="69.03"/>
    <circle class="cls-5" cx="118.99" cy="118.99" r="13.51"/>
    <circle class="cls-1" cx="118.93" cy="118.99" r="2.27"/>
    <rect class="cls-3" x="183.29" y="68.38" width="49.56" height="21.47" transform="translate(-14.53 78.46) rotate(-20.65)"/>
  </g>
</svg>