<?xml version="1.0" encoding="UTF-8"?>
<svg xmlns="http://www.w3.org/2000/svg" viewBox="0 0 345.75 489.31" width="46" height="65">
  <defs>
    <style>
      .cls-1 {
        fill: #facd45;
        stroke-width: 15px;
      }

      .cls-1, .cls-2, .cls-3 {
        stroke: #000;
        stroke-miterlimit: 10;
      }

      .cls-2, .cls-3 {
        stroke-width: 5px;
      }

      .cls-3 {
        fill: #fff;
      }
    </style>
  </defs>
  <g id="point">
    <path class="cls-1" d="m338.25,172.94c0,19.96-3.55,39.09-10.04,56.8-20.63,56.33-127.49,215.19-150.83,249.59-2.2,3.24-6.95,3.33-9.26.16C141.06,442.36,7.5,254.96,7.5,172.88,7.5,80.42,83.37,5.68,176.25,7.53c89.71,1.79,162.04,75.67,162,165.41Z"/>
  </g>
  <g id="airlock">
    <circle class="cls-3" cx="174.01" cy="176.11" r="116.49"/>
    <path class="cls-3" d="m256.53,176.11c0,45.58-36.95,82.52-82.52,82.52s-82.52-36.95-82.52-82.52,36.95-82.52,82.52-82.52c24.64,0,46.75,10.79,61.87,27.91,12.85,14.55,20.65,33.67,20.65,54.61Z"/>
    <path class="cls-3" d="m215.3,214.9c-10.33,11-25.01,17.87-41.29,17.87-31.29,0-56.65-25.36-56.65-56.65s25.36-56.65,56.65-56.65c16.13,0,30.68,6.74,41,17.56"/>
    <path class="cls-3" d="m167.56,196.3c-8.34-2.56-14.57-10.2-14.95-19.47s5.49-17.86,13.96-20.92"/>
    <circle class="cls-3" cx="174.01" cy="176.11" r="13.51"/>
    <circle class="cls-2" cx="245.63" cy="244.66" r="4.49"/>
    <circle class="cls-2" cx="103.63" cy="242.66" r="4.49"/>
    <circle class="cls-2" cx="112.63" cy="96.66" r="4.49"/>
    <circle class="cls-2" cx="240.16" cy="97.8" r="4.49"/>
    <line class="cls-3" x1="166.63" y1="155.92" x2="166.61" y2="155.93"/>
    <line class="cls-3" x1="166.64" y1="155.92" x2="166.63" y2="155.92"/>
    <polyline class="cls-3" points="166.21 156.1 216.64 135.33 240.16 124.89"/>
    <line class="cls-3" x1="164.31" y1="195" x2="240.16" y2="225.46"/>
    <polyline class="cls-2" points="83.09 104.45 110.55 122.18 99.82 139.93 69.73 124.14"/>
    <polygon class="cls-2" points="269.91 110.6 240.16 125.72 249.33 142.79 280.45 131.46 269.91 110.6"/>
    <line class="cls-3" x1="160.51" y1="175.72" x2="187.51" y2="175.72"/>
  </g>
</svg>