<?xml version="1.0" encoding="UTF-8"?>
<svg xmlns="http://www.w3.org/2000/svg" width="46" height="65" viewBox="0 0 345.75 489.31">
  <defs>
    <style>
      .cls-1, .cls-2, .cls-3 {
        stroke-miterlimit: 10;
      }

      .cls-1, .cls-3 {
        stroke: #1d1d1b;
        stroke-width: 10px;
      }

      .cls-2 {
        fill: #3e92d0;
        stroke: #000;
        stroke-width: 15px;
      }

      .cls-3 {
        fill: #fff;
      }
    </style>
  </defs>
  <g id="point">
    <path class="cls-2" d="m338.25,172.94c0,19.96-3.55,39.09-10.04,56.8-20.63,56.33-127.49,215.19-150.83,249.59-2.2,3.24-6.95,3.33-9.26.16C141.06,442.36,7.5,254.96,7.5,172.88,7.5,80.42,83.37,5.68,176.25,7.53c89.71,1.79,162.04,75.67,162,165.41Z"/>
  </g>
  <g id="ammo">
    <rect class="cls-3" x="66.66" y="105.44" width="216.59" height="152.98" rx="9.51" ry="9.51"/>
    <rect class="cls-1" x="49.88" y="101.1" width="248.59" height="12.59" rx="2.34" ry="2.34"/>
    <rect class="cls-1" x="117.68" y="94.44" width="110.4" height="12.2"/>
    <path class="cls-1" d="m126.76,148.22c0-9.79-11.11-17.73-11.11-17.73,0,0-11.11,7.94-11.11,17.73,0,1.3.09,2.56.26,3.78h-.26v58.56h22.22v-58.56h-.26c.17-1.22.26-2.48.26-3.78Z"/>
    <rect class="cls-3" x="104.54" y="228.31" width="22.22" height="7.38"/>
    <path class="cls-1" d="m186.76,148.22c0-9.79-11.11-17.73-11.11-17.73,0,0-11.11,7.94-11.11,17.73,0,1.3.09,2.56.26,3.78h-.26v58.56h22.22v-58.56h-.26c.17-1.22.26-2.48.26-3.78Z"/>
    <rect class="cls-3" x="164.54" y="228.31" width="22.22" height="7.38"/>
    <path class="cls-1" d="m246.76,148.22c0-9.79-11.11-17.73-11.11-17.73,0,0-11.11,7.94-11.11,17.73,0,1.3.09,2.56.26,3.78h-.26v58.56h22.22v-58.56h-.26c.17-1.22.26-2.48.26-3.78Z"/>
    <rect class="cls-3" x="224.54" y="228.31" width="22.22" height="7.38"/>
  </g>
</svg>