<?xml version="1.0" encoding="UTF-8"?>
<svg xmlns="http://www.w3.org/2000/svg" width="46" height="65" viewBox="0 0 345.75 489.31">
    <defs>
        <style>
            .cls-1,
            .cls-2 {
                stroke-width: 5px;
            }

            .cls-1,
            .cls-2,
            .cls-3,
            .cls-4,
            .cls-5 {
                stroke-miterlimit: 10;
            }

            .cls-1,
            .cls-2,
            .cls-3,
            .cls-5 {
                stroke: #1d1d1b;
            }

            .cls-2,
            .cls-5 {
                fill: #fff;
            }

            .cls-3 {
                fill: #facd45;
            }

            .cls-3,
            .cls-5 {
                stroke-width: 10px;
            }

            .cls-4 {
                fill: #3e92d0;
                stroke: #000;
                stroke-width: 15px;
            }
        </style>
    </defs>
    <g id="point">
        <path class="cls-4"
            d="m338.25,172.94c0,19.96-3.55,39.09-10.04,56.8-20.63,56.33-127.49,215.19-150.83,249.59-2.2,3.24-6.95,3.33-9.26.16C141.06,442.36,7.5,254.96,7.5,172.88,7.5,80.42,83.37,5.68,176.25,7.53c89.71,1.79,162.04,75.67,162,165.41Z" />
    </g>
    <g id="blocked_resource_box">
        <rect class="cls-3" x="56.9" y="121.83" width="245.46" height="37.46" rx="18.73" ry="18.73" />
        <rect class="cls-5" x="64.71" y="147.58" width="228.29" height="110.83" />
        <rect class="cls-2" x="146.17" y="154.61" width="59.12" height="78.44" />
        <polygon class="cls-1"
            points="191.52 216.37 159.46 216.37 159.46 192.43 164.9 192.43 191.52 192.43 191.52 216.37" />
        <path class="cls-2"
            d="m186.2,179.07v13.36h-22.69v-12.99c0-4.17,1.95-8.16,5.43-11.1h0c3.25-2.75,8.52-2.76,11.78-.01l.34.29c3.29,2.77,5.14,6.54,5.14,10.47Z" />
    </g>
</svg>