<?xml version="1.0" encoding="UTF-8"?>
<svg xmlns="http://www.w3.org/2000/svg" width="32.2" height="45.5" viewBox="0 0 345.75 489.31">
  <defs>
    <style>
      .cls-1, .cls-2 {
        stroke-width: 5px;
      }

      .cls-1, .cls-2, .cls-3, .cls-4, .cls-5 {
        stroke-miterlimit: 10;
      }

      .cls-1, .cls-2, .cls-4, .cls-5 {
        stroke: #1d1d1b;
      }

      .cls-2, .cls-4 {
        fill: #fff;
      }

      .cls-3 {
        fill: #3e92d0;
        stroke: #000;
        stroke-width: 15px;
      }

      .cls-4, .cls-5 {
        stroke-width: 10px;
      }

      .cls-5 {
        fill: none;
      }
    </style>
  </defs>
  <g id="point">
    <path class="cls-3" d="m338.25,172.94c0,19.96-3.55,39.09-10.04,56.8-20.63,56.33-127.49,215.19-150.83,249.59-2.2,3.24-6.95,3.33-9.26.16C141.06,442.36,7.5,254.96,7.5,172.88,7.5,80.42,83.37,5.68,176.25,7.53c89.71,1.79,162.04,75.67,162,165.41Z"/>
  </g>
  <g id="blocked_access">
    <rect class="cls-4" x="105.73" y="79.39" width="140.24" height="212.49"/>
    <polyline class="cls-5" points="105.73 268.56 119.94 282.77 126.56 289.39"/>
    <polyline class="cls-5" points="105.73 268.56 119.94 282.77 126.56 289.39"/>
    <polyline class="cls-5" points="105.19 218.02 157.02 269.85 181.16 293.99"/>
    <polyline class="cls-5" points="108.46 171.29 191.1 253.93 229.58 292.41"/>
    <polyline class="cls-5" points="106.95 119.78 201.8 214.63 245.97 258.8"/>
    <polyline class="cls-5" points="116.95 79.78 204.07 166.9 244.65 207.47"/>
    <polyline class="cls-5" points="164.32 77.14 221.12 133.95 247.58 160.41"/>
    <polyline class="cls-5" points="216.95 79.78 235.85 98.67 244.65 107.47"/>
    <polyline class="cls-5" points="105.19 103.08 121.36 86.92 128.89 79.39"/>
    <polyline class="cls-5" points="108.06 150.22 153.99 104.29 175.38 82.9"/>
    <polyline class="cls-5" points="106.55 201.73 187.62 120.66 225.38 82.9"/>
    <polyline class="cls-5" points="107.67 250.61 201.12 157.15 244.65 113.63"/>
    <polyline class="cls-5" points="117.67 290.61 204.3 203.98 244.65 163.63"/>
    <polyline class="cls-5" points="165.96 292.32 219.38 238.9 244.26 214.02"/>
    <polyline class="cls-5" points="215.11 293.17 237.26 271.02 247.58 260.7"/>
    <rect class="cls-2" x="105.19" y="124.17" width="139.06" height="107.68"/>
    <path class="cls-2" d="m195.92,157.77v19.58h-41.21v-19.04c0-6.11,3.55-11.96,9.86-16.28h0c5.9-4.04,15.47-4.04,21.39-.02l.62.42c5.97,4.06,9.33,9.58,9.33,15.34Z"/>
    <path class="cls-1" d="m196.72,211.94h-41.12c-4.73,0-8.56-3.39-8.56-7.57v-23.33c0-4.18,3.83-7.57,8.56-7.57h41.12c4.73,0,8.56,3.39,8.56,7.57v23.33c0,4.18-3.83,7.57-8.56,7.57Z"/>
  </g>
</svg>