<?xml version="1.0" encoding="UTF-8"?>
<svg xmlns="http://www.w3.org/2000/svg" width="32.2" height="45.5" viewBox="0 0 345.75 489.31">
  <defs>
    <style>
      .cls-1, .cls-2 {
        stroke-width: 5px;
      }

      .cls-1, .cls-2, .cls-3, .cls-4, .cls-5 {
        stroke-miterlimit: 10;
      }

      .cls-1, .cls-2, .cls-3, .cls-5 {
        stroke: #1d1d1b;
      }

      .cls-2, .cls-5 {
        fill: #fff;
      }

      .cls-3 {
        fill: #facd45;
      }

      .cls-3, .cls-5 {
        stroke-width: 10px;
      }

      .cls-4 {
        fill: #3e92d0;
        stroke: #000;
        stroke-width: 15px;
      }
    </style>
  </defs>
  <g id="point">
    <path class="cls-4" d="m338.25,172.94c0,19.96-3.55,39.09-10.04,56.8-20.63,56.33-127.49,215.19-150.83,249.59-2.2,3.24-6.95,3.33-9.26.16C141.06,442.36,7.5,254.96,7.5,172.88,7.5,80.42,83.37,5.68,176.25,7.53c89.71,1.79,162.04,75.67,162,165.41Z"/>
  </g>
  <g id="blocked_resource_box">
    <rect class="cls-3" x="50.15" y="121.83" width="245.46" height="37.46" rx="18.73" ry="18.73"/>
    <rect class="cls-5" x="57.95" y="147.58" width="228.29" height="110.83"/>
    <path class="cls-1" d="m190.39,236.8h-35.02c-4.02,0-7.29-3.26-7.29-7.29v-22.47c0-4.02,3.26-7.29,7.29-7.29h35.02c4.02,0,7.29,3.26,7.29,7.29v22.47c0,4.02-3.26,7.29-7.29,7.29Z"/>
    <path class="cls-2" d="m189.45,184.08v16.68h-35.09v-16.22c0-5.2,3.02-10.19,8.4-13.86h0c5.03-3.44,13.18-3.44,18.22-.02l.52.36c5.09,3.46,7.95,8.16,7.95,13.06Z"/>
  </g>
</svg>