<?xml version="1.0" encoding="UTF-8"?>
<svg xmlns="http://www.w3.org/2000/svg" width="32.2" height="45.5"
    viewBox="0 0 345.75 489.31">
    <defs>
        <style>
            .cls-1,
            .cls-2 {
                fill: #fff;
            }

            .cls-3 {
                fill: #5db670;
                stroke: #000;
                stroke-width: 15px;
            }

            .cls-3,
            .cls-2,
            .cls-4 {
                stroke-miterlimit: 10;
            }

            .cls-2,
            .cls-4 {
                stroke: #1d1d1b;
                stroke-width: 10px;
            }

            .cls-4 {
                fill: none;
            }
        </style>
    </defs>
    <g id="point">
        <path class="cls-3"
            d="m338.25,172.94c0,19.96-3.55,39.09-10.04,56.8-20.63,56.33-127.49,215.19-150.83,249.59-2.2,3.24-6.95,3.33-9.26.16C141.06,442.36,7.5,254.96,7.5,172.88,7.5,80.42,83.37,5.68,176.25,7.53c89.71,1.79,162.04,75.67,162,165.41Z" />
    </g>
    <g id="faction_mission">
        <rect class="cls-2" x="66.5" y="95.63" width="26.7" height="175.27" />
        <g>
            <path class="cls-1"
                d="m283.44,218.44c-59.9,32.3-119.8-32.3-179.71,0v-124.22c59.9-32.3,119.8,32.3,179.71,0v124.22Z" />
            <path class="cls-4"
                d="m283.44,218.44c-59.9,32.3-119.8-32.3-179.71,0v-124.22c59.9-32.3,119.8,32.3,179.71,0v124.22Z" />
        </g>
        <polygon class="cls-2"
            points="205.17 183.96 186.42 173.88 167.49 183.62 171.28 162.68 156.17 147.68 177.26 144.81 186.85 125.81 196.1 144.98 217.13 148.23 201.76 162.95 205.17 183.96" />
    </g>
</svg>