<?xml version="1.0" encoding="UTF-8"?>
<svg xmlns="http://www.w3.org/2000/svg" width="32.2" height="45.5" viewBox="0 0 345.75 489.31">
  <defs>
    <style>
      .cls-1 {
        fill: #fff;
        stroke-width: 8px;
      }

      .cls-1, .cls-2 {
        stroke: #000;
        stroke-miterlimit: 10;
      }

      .cls-2 {
        fill: #5DB670;
        stroke-width: 15px;
      }
    </style>
  </defs>
  <g id="point">
    <path id="enemy" class="cls-2" d="m338.25,172.94c0,19.96-3.55,39.09-10.04,56.8-20.63,56.33-127.49,215.19-150.83,249.59-2.2,3.24-6.95,3.33-9.26.16C141.06,442.36,7.5,254.96,7.5,172.88,7.5,80.42,83.37,5.68,176.25,7.53c89.71,1.79,162.04,75.67,162,165.41Z"/>
  </g>
  <g id="fire_extinguiser" data-name="fire extinguiser">
    <path class="cls-1" d="m184.27,140.28v-4.62h2.46c1.98,0,3.58-1.6,3.58-3.58v-2.86c0-1.98-1.6-3.58-3.58-3.58h-2.46v-1.75c.23.05.47.07.72.07h10.72c1.98,0,3.58-1.6,3.58-3.58v-14.27c0-1.98-1.6-3.58-3.58-3.58h-10.72c-.25,0-.48.03-.72.07v-27.32h0c-.05-2.74-4.09-4.96-9.08-4.96s-9.02,2.22-9.08,4.96h0v24.76l-51.94-23.56c-2.96-1.31-6.41.03-7.72,2.99l-1.89,4.28c-1.31,2.96.03,6.41,2.99,7.72l50.79,22.41-6.44-.23h-23.35c-.99,0-1.98.14-2.94.4l-4.94,1.38c-1.92.54-3.76,1.34-5.46,2.39l-3.51,2.17c-2.47,1.53-3.44,4.64-2.28,7.31h0c1.21,2.77,4.44,4.02,7.2,2.79,1.01-.45,1.96-.87,2.66-1.15,2.32-.96,6.42-1.09,6.42-1.09l8.86-.76c1.56-.13,3.12-.09,4.67.13l8.85,1.26c.2.03.39.06.58.1l10.19,2.17c1.56.33,3.05.93,4.41,1.76l2.86,1.75v5.68c-16.24,1.79-28.4,9.08-28.4,17.8v177.64c0,10.07,16.2,18.23,36.18,18.23s36.18-8.16,36.18-18.23v-177.64c0-8.25-10.88-15.22-25.81-17.46Z"/>
  </g>
</svg>