<?xml version="1.0" encoding="UTF-8"?>
<svg xmlns="http://www.w3.org/2000/svg" viewBox="0 0 345.75 489.31" width="32.2" height="45.5">
  <defs>
    <style>
      .cls-1 {
        fill: #1d1d1b;
        stroke-width: 2px;
      }

      .cls-1, .cls-2, .cls-3, .cls-4 {
        stroke: #000;
        stroke-miterlimit: 10;
      }

      .cls-2 {
        stroke-width: 7px;
      }

      .cls-2, .cls-4 {
        fill: #fff;
      }

      .cls-3 {
        fill: #3e92d0;
        stroke-width: 15px;
      }

      .cls-4 {
        stroke-width: 5px;
      }
    </style>
  </defs>
  <g id="point">
    <path class="cls-3" d="m338.25,172.94c0,19.96-3.55,39.09-10.04,56.8-20.63,56.33-127.49,215.19-150.83,249.59-2.2,3.24-6.95,3.33-9.26.16C141.06,442.36,7.5,254.96,7.5,172.88,7.5,80.42,83.37,5.68,176.25,7.53c89.71,1.79,162.04,75.67,162,165.41Z"/>
  </g>
  <g id="hidden_stash">
    <path class="cls-2" d="m226.74,284.16h-104.73c-48.15-48.15.32.32-48.54-48.54V82.21h201.95v153.27l-48.68,48.68Z"/>
    <rect class="cls-4" x="73.47" y="82.21" width="23.56" height="23.56"/>
    <rect class="cls-4" x="248.47" y="82.21" width="23.56" height="23.56"/>
    <rect class="cls-4" x="148.98" y="84.35" width="47.79" height="21.41"/>
    <rect class="cls-4" x="137.76" y="245.35" width="70.24" height="21.41"/>
    <rect class="cls-1" x="160.59" y="127.12" width="26.21" height="9.69" rx="4.85" ry="4.85"/>
    <rect class="cls-1" x="160.59" y="187.32" width="26.21" height="9.69" rx="4.85" ry="4.85"/>
    <rect class="cls-1" x="145.54" y="142.93" width="26.21" height="9.69" rx="4.85" ry="4.85"/>
    <rect class="cls-1" x="176.4" y="142.93" width="26.21" height="9.69" rx="4.85" ry="4.85"/>
    <rect class="cls-1" x="145.54" y="173.03" width="26.21" height="9.69" rx="4.85" ry="4.85"/>
    <rect class="cls-1" x="176.4" y="173.03" width="26.21" height="9.69" rx="4.85" ry="4.85"/>
    <rect class="cls-1" x="131.25" y="158.73" width="26.21" height="9.69" rx="4.85" ry="4.85"/>
    <rect class="cls-1" x="161.35" y="158.73" width="26.21" height="9.69" rx="4.85" ry="4.85"/>
    <rect class="cls-1" x="191.45" y="158.73" width="26.21" height="9.69" rx="4.85" ry="4.85"/>
  </g>
</svg>