<?xml version="1.0" encoding="UTF-8"?>
<svg xmlns="http://www.w3.org/2000/svg" width="46" height="65" viewBox="0 0 345.75 489.31">
  <defs>
    <style>
      .cls-1, .cls-2, .cls-3 {
        stroke-miterlimit: 10;
      }

      .cls-1, .cls-3 {
        stroke: #1d1d1b;
        stroke-width: 10px;
      }

      .cls-2 {
        fill: #3e92d0;
        stroke: #000;
        stroke-width: 15px;
      }

      .cls-3 {
        fill: #fff;
      }
    </style>
  </defs>
  <g id="point">
    <path class="cls-2" d="m338.25,172.94c0,19.96-3.55,39.09-10.04,56.8-20.63,56.33-127.49,215.19-150.83,249.59-2.2,3.24-6.95,3.33-9.26.16C141.06,442.36,7.5,254.96,7.5,172.88,7.5,80.42,83.37,5.68,176.25,7.53c89.71,1.79,162.04,75.67,162,165.41Z"/>
  </g>
  <g id="_medic_kit" data-name=" medic_kit">
    <rect class="cls-3" x="55.25" y="105.44" width="247.21" height="152.98" rx="34.34" ry="34.34"/>
    <polygon class="cls-1" points="236.73 166.92 193.2 166.92 193.2 123.39 164.51 123.39 164.51 166.92 120.97 166.92 120.97 195.61 164.51 195.61 164.51 239.14 193.2 239.14 193.2 195.61 236.73 195.61 236.73 166.92"/>
  </g>
</svg>