<?xml version="1.0" encoding="UTF-8"?>
<svg xmlns="http://www.w3.org/2000/svg" width="32.2" height="45.5" viewBox="0 0 345.75 490.31">
  <defs>
    <style>
      .cls-1 {
        fill: #fff;
        stroke: #1d1d1b;
        stroke-width: 10px;
      }

      .cls-1, .cls-2 {
        stroke-miterlimit: 10;
      }

      .cls-2 {
        fill: #3e91cf;
        stroke: #000;
        stroke-width: 15px;
      }
    </style>
  </defs>
  <g id="point">
    <path id="loot" class="cls-2" d="m338.25,173.94c0,19.96-3.55,39.09-10.04,56.8-20.63,56.33-127.49,215.19-150.83,249.59-2.2,3.24-6.95,3.33-9.26.16C141.06,443.36,7.5,255.96,7.5,173.88,7.5,81.42,83.37,6.68,176.25,8.53c89.71,1.79,162.04,75.67,162,165.41Z"/>
    <path id="loot-2" data-name="loot" class="cls-2" d="m338.25,172.94c0,19.96-3.55,39.09-10.04,56.8-20.63,56.33-127.49,215.19-150.83,249.59-2.2,3.24-6.95,3.33-9.26.16C141.06,442.36,7.5,254.96,7.5,172.88,7.5,80.42,83.37,5.68,176.25,7.53c89.71,1.79,162.04,75.67,162,165.41Z"/>
  </g>
  <g id="wallet">
    <rect class="cls-1" x="57.95" y="111.56" width="228.29" height="148.85" rx="28.99" ry="28.99"/>
    <rect class="cls-1" x="57.38" y="111.56" width="228.29" height="78.15" rx="28.99" ry="28.99"/>
    <circle class="cls-1" cx="172.88" cy="185.99" r="22.33"/>
  </g>
</svg>