<?xml version="1.0" encoding="UTF-8"?>
<svg xmlns="http://www.w3.org/2000/svg" width="32.2" height="45.5" viewBox="0 0 347.75 490.31">
  <defs>
    <style>
      .cls-1 {
        fill: #facd45;
      }

      .cls-1, .cls-2, .cls-3 {
        stroke-width: 15px;
      }

      .cls-1, .cls-2, .cls-3, .cls-4 {
        stroke: #000;
        stroke-miterlimit: 10;
      }

      .cls-2 {
        fill: #be4994;
      }

      .cls-3 {
        fill: #d43c3c;
      }

      .cls-4 {
        fill: #fff;
        stroke-width: 5px;
      }
    </style>
  </defs>
  <g id="point">
    <path id="enemy" class="cls-3" d="m338.25,173.94c0,19.96-3.55,39.09-10.04,56.8-20.63,56.33-127.49,215.19-150.83,249.59-2.2,3.24-6.95,3.33-9.26.16C141.06,443.36,7.5,255.96,7.5,173.88,7.5,81.42,83.37,6.68,176.25,8.53c89.71,1.79,162.04,75.67,162,165.41Z"/>
    <path id="rubber" class="cls-1" d="m338.25,172.94c0,19.96-3.55,39.09-10.04,56.8-20.63,56.33-127.49,215.19-150.83,249.59-2.2,3.24-6.95,3.33-9.26.16C141.06,442.36,7.5,254.96,7.5,172.88,7.5,80.42,83.37,5.68,176.25,7.53c89.71,1.79,162.04,75.67,162,165.41Z"/>
    <path id="extraction" class="cls-2" d="m340.25,172.94c0,19.96-3.55,39.09-10.04,56.8-20.63,56.33-127.49,215.19-150.83,249.59-2.2,3.24-6.95,3.33-9.26.16C143.06,442.36,9.5,254.96,9.5,172.88,9.5,80.42,85.37,5.68,178.25,7.53c89.71,1.79,162.04,75.67,162,165.41Z"/>
  </g>
  <g id="rudder">
    <path class="cls-4" d="m168.08,56.72c-5.34,1.93-8.8,5.53-10.33,10.87-.89,3.11-.69,5.98.99,14.97l1.14,5.73-5.73,1.14c-11.56,2.27-24.26,7.51-33.75,13.98l-4.84,3.26-3.95-5.88c-6.97-10.23-10.43-12.6-17.79-12.26-4.25.2-6.97,1.33-10.08,4.25-6.13,5.83-6.37,16.06-.49,21.99,1.19,1.24,4.84,4.05,8.1,6.23l5.88,4-3.26,4.84c-7.21,10.72-12.35,23.57-14.48,36.22l-.59,3.26-5.98-1.19c-3.31-.64-7.91-1.24-10.23-1.28-3.61-.1-4.6.1-6.97,1.19-5.78,2.72-9.09,7.91-9.09,14.28s3.31,11.56,9.09,14.28c2.37,1.09,3.36,1.28,6.97,1.19,2.32-.05,6.92-.59,10.18-1.28l5.98-1.19,1.14,5.73c2.22,11.51,7.46,24.07,13.98,33.75l3.26,4.84-5.88,4c-10.23,6.92-12.6,10.38-12.26,17.74.2,4.4,1.53,7.36,4.55,10.28,3.16,3.06,5.88,4.25,10.18,4.45,7.36.35,10.82-2.03,17.79-12.26l3.95-5.88,4.84,3.26c9.49,6.47,22.19,11.71,33.75,13.98l5.73,1.14-1.19,5.98c-.69,3.26-1.24,7.86-1.28,10.18-.1,3.61.1,4.6,1.19,6.97,2.72,5.78,7.91,9.09,14.28,9.09s11.56-3.31,14.28-9.09c1.09-2.37,1.28-3.36,1.19-6.97-.05-2.32-.59-6.92-1.28-10.18l-1.19-5.98,5.73-1.14c11.51-2.22,24.07-7.46,33.75-13.98l4.84-3.26,4,5.88c6.92,10.23,10.38,12.6,17.74,12.26,4.3-.2,7.02-1.38,10.18-4.45,3.01-2.92,4.35-5.88,4.55-10.28.35-7.36-2.03-10.82-12.26-17.74l-5.88-4,3.26-4.84c6.52-9.69,11.76-22.24,13.98-33.75l1.14-5.73,5.98,1.19c3.26.69,7.86,1.24,10.18,1.28,3.61.1,4.6-.1,6.97-1.19,5.78-2.72,9.09-7.91,9.09-14.28s-3.31-11.56-9.09-14.28c-2.37-1.09-3.36-1.28-6.97-1.19-2.32.05-6.92.59-10.18,1.28l-5.98,1.19-1.14-5.73c-2.27-11.56-7.51-24.26-13.98-33.75l-3.26-4.84,5.88-3.95c10.23-6.97,12.6-10.43,12.26-17.79-.2-4.4-1.53-7.36-4.55-10.28-3.16-3.06-5.88-4.25-10.18-4.45-7.36-.35-10.82,2.03-17.74,12.26l-4,5.88-4.84-3.26c-10.72-7.21-23.57-12.35-36.22-14.48l-3.26-.59,1.19-5.98c.64-3.31,1.24-7.91,1.28-10.23.1-3.61-.1-4.6-1.19-6.97-3.41-7.21-11.91-11.02-19.07-8.45Zm-3.11,70.91v15.91l-3.31.94c-1.88.54-4.99,1.83-7.02,2.87l-3.71,1.93-11.32-11.32-11.27-11.32,3.61-2.47c4.69-3.26,10.08-6.13,14.92-8.05,4.99-1.98,13.1-4,17.25-4.4.79-.05.84.99.84,15.91Zm25.25-14.23c8.35,2.08,16.01,5.53,23.57,10.77l3.61,2.47-11.27,11.32-11.32,11.27-3.66-1.88c-2.03-1.04-5.19-2.32-7.02-2.87l-3.36-.94v-31.92l2.37.3c1.28.2,4.45.84,7.07,1.48Zm-52.33,50.7c-1.04,2.03-2.32,5.14-2.87,6.97l-.94,3.36h-31.92l.3-2.37c1.43-10.23,5.83-21.3,12.26-30.64l2.47-3.61,11.32,11.27,11.32,11.32-1.93,3.71Zm93.15-22.68c6.42,9.29,10.82,20.41,12.26,30.64l.3,2.37h-31.92l-.94-3.36c-.54-1.83-1.83-4.94-2.87-6.97l-1.93-3.66,11.27-11.32c6.18-6.18,11.27-11.27,11.32-11.27s1.19,1.63,2.52,3.56Zm-96.02,52.13c.54,1.88,1.83,4.99,2.87,7.02l1.93,3.71-11.32,11.32-11.32,11.27-2.47-3.61c-6.42-9.34-10.82-20.41-12.26-30.69l-.3-2.32h31.92l.94,3.31Zm108.27-.99c-1.43,10.28-5.83,21.35-12.26,30.69l-2.47,3.61-11.32-11.27-11.27-11.32,1.88-3.66c1.04-2.03,2.32-5.19,2.87-7.07l.94-3.31h31.92l-.3,2.32Zm-88.6,24.76c1.98,1.04,5.09,2.32,6.97,2.87l3.31.94v31.92l-2.32-.3c-10.28-1.43-21.35-5.83-30.69-12.26l-3.61-2.47,11.27-11.32c6.18-6.18,11.32-11.27,11.37-11.27s1.73.84,3.71,1.88Zm51.44,9.39l11.27,11.32-3.61,2.47c-9.34,6.42-20.41,10.82-30.64,12.26l-2.37.3v-31.92l3.9-1.19c2.17-.64,5.24-1.88,6.82-2.82,1.58-.89,2.97-1.63,3.11-1.63.15-.05,5.34,5.04,11.51,11.22Z"/>
  </g>
</svg>