<?xml version="1.0" encoding="UTF-8"?>
<svg xmlns="http://www.w3.org/2000/svg" width="32.2" height="45.5" viewBox="0 0 345.75 489.31">
  <defs>
    <style>
      .cls-1 {
        stroke-width: 12px;
      }

      .cls-1, .cls-2, .cls-3, .cls-4, .cls-5, .cls-6, .cls-7 {
        stroke: #000;
        stroke-miterlimit: 10;
      }

      .cls-1, .cls-4, .cls-5, .cls-6 {
        fill: #fff;
      }

      .cls-2 {
        fill: #1d1d1b;
      }

      .cls-2, .cls-3, .cls-5 {
        stroke-width: 2px;
      }

      .cls-3 {
        fill: none;
      }

      .cls-4 {
        stroke-width: 10px;
      }

      .cls-6 {
        stroke-width: 3px;
      }

      .cls-7 {
        fill: #3e91cf;
        stroke-width: 15px;
      }
    </style>
  </defs>
  <g id="point">
    <path id="loot" class="cls-7" d="m338.25,172.94c0,19.96-3.55,39.09-10.04,56.8-20.63,56.33-127.49,215.19-150.83,249.59-2.2,3.24-6.95,3.33-9.26.16C141.06,442.36,7.5,254.96,7.5,172.88,7.5,80.42,83.37,5.68,176.25,7.53c89.71,1.79,162.04,75.67,162,165.41Z"/>
  </g>
  <g id="salvage">
    <rect class="cls-4" x="64.36" y="97.84" width="225.39" height="166.51" rx=".87" ry=".87"/>
    <path class="cls-1" d="m124.02,97.68v162.77"/>
    <path class="cls-1" d="m65.63,97.05v162.77"/>
    <path class="cls-1" d="m254.63,100.56v162.77"/>
    <path class="cls-1" d="m286.63,97.05v162.77"/>
    <path class="cls-4" d="m123.12,138.27h131.51"/>
    <path class="cls-6" d="m122.76,169.27h133.46"/>
    <path class="cls-6" d="m122.76,210.27h133.46"/>
    <path class="cls-4" d="m122.76,245.08h131.51"/>
    <rect class="cls-3" x="89.57" y="154.56" width="21.92" height="16.13"/>
    <rect class="cls-2" x="94.33" y="158.06" width="12.4" height="9.12"/>
    <rect class="cls-5" x="187" y="110.27" width="10.04" height="15.11" rx="5.02" ry="5.02"/>
    <rect class="cls-5" x="75.3" y="152.88" width="8.97" height="14.41" rx="4.48" ry="4.48"/>
    <g id="lever">
      <rect class="cls-2" x="97.84" y="194" width="3.85" height="7.68"/>
      <rect class="cls-2" x="98.5" y="191.59" width="2.52" height="4.07"/>
      <rect class="cls-5" x="96.27" y="180.73" width="7.3" height=".18"/>
      <rect class="cls-5" x="91.64" y="182.63" width="6.31" height=".15" transform="translate(-87.91 277.5) rotate(-90)"/>
      <rect class="cls-5" x="94.26" y="188.95" width="6.31" height=".15" transform="translate(32.64 391.58) rotate(-135)"/>
      <rect class="cls-5" x="99.02" y="188.96" width="6.31" height=".15" transform="translate(-103.74 127.62) rotate(-45)"/>
      <rect class="cls-5" x="101.64" y="182.63" width="6.31" height=".15" transform="translate(-77.91 287.5) rotate(-90)"/>
    </g>
  </g>
</svg>