<?xml version="1.0" encoding="UTF-8"?>
<svg xmlns="http://www.w3.org/2000/svg" viewBox="0 0 345.75 489.31"  width="46" height="65">
  <defs>
    <style>
      .cls-1, .cls-2, .cls-3, .cls-4, .cls-5, .cls-6 {
        stroke: #000;
        stroke-miterlimit: 10;
      }

      .cls-1, .cls-6 {
        stroke-width: 5px;
      }

      .cls-7, .cls-3, .cls-6 {
        fill: #fff;
      }

      .cls-2, .cls-4 {
        fill: none;
        stroke-linecap: round;
        stroke-width: 10px;
      }

      .cls-3 {
        stroke-width: 7px;
      }

      .cls-4 {
        stroke-dasharray: 0 0 0 30.3;
      }

      .cls-5 {
        fill: #3e92d0;
        stroke-width: 15px;
      }
    </style>
  </defs>
  <g id="point">
    <path class="cls-5" d="m338.25,172.94c0,19.96-3.55,39.09-10.04,56.8-20.63,56.33-127.49,215.19-150.83,249.59-2.2,3.24-6.95,3.33-9.26.16C141.06,442.36,7.5,254.96,7.5,172.88,7.5,80.42,83.37,5.68,176.25,7.53c89.71,1.79,162.04,75.67,162,165.41Z"/>
  </g>
  <g id="vault">
    <circle class="cls-6" cx="173.98" cy="176.11" r="116.49"/>
    <g>
      <path class="cls-7" d="m245.08,247.76c-18.24,18.11-43.37,29.29-71.1,29.29-55.75,0-100.94-45.19-100.94-100.94s45.19-100.94,100.94-100.94c30.13,0,57.18,13.2,75.68,34.14.72.82,1.43,1.65,2.13,2.49"/>
      <g>
        <line class="cls-2" x1="245.08" y1="247.76" x2="245.08" y2="247.76"/>
        <path class="cls-4" d="m220.72,265.6c-13.97,7.31-29.87,11.45-46.74,11.45-55.75,0-100.94-45.19-100.94-100.94s45.19-100.94,100.94-100.94c25.86,0,49.45,9.73,67.31,25.72"/>
        <line class="cls-2" x1="251.79" y1="111.81" x2="251.79" y2="111.81"/>
      </g>
    </g>
    <path class="cls-6" d="m256.5,176.11c0,45.58-36.95,82.52-82.52,82.52s-82.52-36.95-82.52-82.52,36.95-82.52,82.52-82.52c24.64,0,46.75,10.79,61.87,27.91,12.85,14.55,20.65,33.67,20.65,54.61Z"/>
    <rect class="cls-3" x="237.2" y="216.27" width="49.56" height="21.47" transform="translate(99 -78.94) rotate(21.05)"/>
    <line class="cls-6" x1="189.44" y1="94.71" x2="160.01" y2="258.65"/>
    <line class="cls-6" x1="117.57" y1="115.89" x2="230.28" y2="236.44"/>
    <path class="cls-6" d="m91.46,170.82l165.04,10.74"/>
    <rect class="cls-3" x="245.08" y="170.82" width="49.56" height="21.47"/>
    <line class="cls-6" x1="109.02" y1="227.01" x2="239.67" y2="126.16"/>
    <circle class="cls-6" cx="173.98" cy="176.11" r="13.51"/>
    <circle class="cls-1" cx="173.92" cy="176.11" r="2.27"/>
    <rect class="cls-3" x="238.29" y="125.51" width="49.56" height="21.47" transform="translate(-31.15 101.52) rotate(-20.65)"/>
  </g>
</svg>