<?xml version="1.0" encoding="UTF-8"?>
<svg xmlns="http://www.w3.org/2000/svg" viewBox="0 0 345.75 491.31" width="32.2" height="45.5">
  <defs>
    <style>
      .cls-1 {
        fill: #facd45;
      }

      .cls-1, .cls-2, .cls-3, .cls-4, .cls-5 {
        stroke: #000;
        stroke-miterlimit: 10;
      }

      .cls-1, .cls-3, .cls-4 {
        stroke-width: 15px;
      }

      .cls-2 {
        fill: #fff;
      }

      .cls-2, .cls-5 {
        stroke-width: 6px;
      }

      .cls-3 {
        fill: #d43c3c;
      }

      .cls-4 {
        fill: #8c8c8c;
      }
    </style>
  </defs>
  <g id="point">
    <path id="enemy" class="cls-3" d="m338.25,173.94c0,19.96-3.55,39.09-10.04,56.8-20.63,56.33-127.49,215.19-150.83,249.59-2.2,3.24-6.95,3.33-9.26.16C141.06,443.36,7.5,255.96,7.5,173.88,7.5,81.42,83.37,6.68,176.25,8.53c89.71,1.79,162.04,75.67,162,165.41Z"/>
    <path id="rubber" class="cls-1" d="m338.25,172.94c0,19.96-3.55,39.09-10.04,56.8-20.63,56.33-127.49,215.19-150.83,249.59-2.2,3.24-6.95,3.33-9.26.16C141.06,442.36,7.5,254.96,7.5,172.88,7.5,80.42,83.37,5.68,176.25,7.53c89.71,1.79,162.04,75.67,162,165.41Z"/>
    <path id="viewfinder" class="cls-4" d="m338.25,174.94c0,19.96-3.55,39.09-10.04,56.8-20.63,56.33-127.49,215.19-150.83,249.59-2.2,3.24-6.95,3.33-9.26.16C141.06,444.36,7.5,256.96,7.5,174.88,7.5,82.42,83.37,7.68,176.25,9.53c89.71,1.79,162.04,75.67,162,165.41Z"/>
  </g>
  <g id="viewfinder-2" data-name="viewfinder">
    <rect class="cls-2" x="218.94" y="214.37" width="56.7" height="12.59" rx="3.67" ry="3.67" transform="translate(-35.29 393.85) rotate(-73.25)"/>
    <rect class="cls-2" x="148.12" y="49.13" width="46.65" height="205.05" rx="10.13" ry="10.13"/>
    <rect class="cls-2" x="128.73" y="129.77" width="82.42" height="205.05" rx="10.13" ry="10.13"/>
    <rect class="cls-2" x="155.55" y="173.51" width="28.78" height="14.52" rx="3.9" ry="3.9"/>
    <circle class="cls-2" cx="171.44" cy="252.34" r="12.6"/>
    <rect class="cls-5" x="145.09" y="298.36" width="49.69" height="20.86"/>
    <rect class="cls-2" x="222.49" y="245.85" width="28.86" height="18.74" transform="translate(-75.76 408.51) rotate(-73.25)"/>
    <rect class="cls-2" x="71.45" y="217.89" width="56.7" height="12.59" rx="3.67" ry="3.67" transform="translate(-103.12 362.2) rotate(-100.23)"/>
    <rect class="cls-2" x="91.8" y="248.32" width="28.86" height="18.74" transform="translate(-128.51 407.98) rotate(-100.23)"/>
    <rect class="cls-2" x="213.2" y="261.86" width="28.86" height="18.74"/>
    <rect class="cls-2" x="99.02" y="260.81" width="28.86" height="18.74"/>
  </g>
</svg>