<?xml version="1.0" encoding="UTF-8"?>
<svg xmlns="http://www.w3.org/2000/svg" width="32.2" height="45.5" viewBox="0 0 345.75 489.31">
    <defs>
        <style>
            .cls-1 {
                fill: #1d1d1b;
            }

            .cls-1,
            .cls-2 {
                stroke-width: 5px;
            }

            .cls-1,
            .cls-2,
            .cls-3,
            .cls-4 {
                stroke-miterlimit: 10;
            }

            .cls-1,
            .cls-2,
            .cls-4 {
                stroke: #1d1d1b;
            }

            .cls-2 {
                fill: none;
            }

            .cls-3 {
                fill: #5db670;
                stroke: #000;
                stroke-width: 15px;
            }

            .cls-4 {
                fill: #fff;
                stroke-width: 10px;
            }
        </style>
    </defs>
    <g id="point">
        <path class="cls-3"
            d="m338.25,172.94c0,19.96-3.55,39.09-10.04,56.8-20.63,56.33-127.49,215.19-150.83,249.59-2.2,3.24-6.95,3.33-9.26.16C141.06,442.36,7.5,254.96,7.5,172.88,7.5,80.42,83.37,5.68,176.25,7.53c89.71,1.79,162.04,75.67,162,165.41Z" />
    </g>
    <g id="zero_to_hero">
        <path class="cls-4"
            d="m76.43,230.71h-1.52c-3.57,0-6.55-2.72-6.88-6.27l-1.37-14.8,2.03-19.94c.19-1.88,1.46-3.49,3.24-4.11l1.14-.4c2.35-.82,4.15-2.72,4.85-5.11l2.79-9.47,8.98-30.83,6.54-21.8c.32-1.07.8-2.09,1.43-3.02l8.81-13.04,13.88-12.49c1.14-1.03,2.49-1.8,3.96-2.26l18.85-5.93,13.38-2.46c3.81-.7,7.69-.87,11.55-.52l6.66.62c5.71.53,11.33,1.81,16.71,3.8l7.7,2.85,15.51,6.44,9.95,6,13.9,13.02,4.66,5.83c3.12,3.9,5.58,8.27,7.29,12.96l3.75,10.28c.65,1.79,1.03,3.66,1.11,5.56l.75,17.18,1.02,14.49,2.22,13.47c.37,2.24.97,4.43,1.8,6.54l5.64,14.39,5.76,8.68,5.27,7.8,3.71,7.41h0c0,1.19-.96,2.15-2.15,2.15h-5.46c-1.28.58-2.04,1.92-1.89,3.32l.13,1.17,1.56,2.44,3.32,4.39,4.49,8.59.92,2.38c.66,1.71.54,3.62-.33,5.23h0c.68,1.27-2.8,3.52-6.44,0-1.27-1.23-14.63,0-14.63,0l-13.07-2.93-13.85-1.76-8.2-.39-1.37-.39H93.97l-5.85-2.34-6.05-1.76-1.76-2.54-.98-4.29-.39-9.95v-4.29h0c.82-1.83-.52-3.9-2.52-3.9Z" />
        <polyline class="cls-2"
            points="80.71 230.71 84.22 219 90.07 207.1 91.63 195.58 95.93 187.78 104.9 183.88 127.93 183.1 144.32 184.27 171.52 186.61 189.58 187.39 202.85 190.12 218.07 195.58 227.83 202.61 239.54 215.1 246.95 224.46 257.1 235.78 262.95 240.63 267.24 240.63" />
        <path class="cls-2"
            d="m81.36,173.71l11.83-3.88,6.17-2.19c1.92-.68,3.94-1.03,5.98-1.03h50.19s12.26.98,13.91,1.1c2.08.15,13.89,1.64,13.89,1.64l10.54,1.65,13.79,2.28c1.72.28,3.37.89,4.87,1.77l8.18,2.82,9.37,5.56,9.16,6.3,8.49,4.39,9.8,2.67" />
        <polygon class="cls-1" points="111.54 146.8 134.55 138.22 140.61 101.53 111.54 146.8" />
        <polygon class="cls-1" points="147.86 107.09 143.38 139.06 161.14 144.5 149.57 100.71 147.86 107.09" />
        <polyline class="cls-2"
            points="82.84 237.51 107.63 236.34 132.02 236.34 171.01 237.51 201.49 237.51 229 237.51 252.02 240.63 261.78 240.63 268.8 240.63" />
    </g>
</svg>