<?xml version="1.0" encoding="UTF-8"?>
<svg xmlns="http://www.w3.org/2000/svg" width="1465.17" height="1024.97" viewBox="0 0 1465.17 1024.97">
  <defs>
    <style>
      .cls-1, .cls-2, .cls-3, .cls-4, .cls-5, .cls-6, .cls-7, .cls-8, .cls-9, .cls-10, .cls-11, .cls-12, .cls-13, .cls-14, .cls-15, .cls-16, .cls-17, .cls-18, .cls-19, .cls-20, .cls-21, .cls-22, .cls-23, .cls-24, .cls-25, .cls-26, .cls-27, .cls-28, .cls-29, .cls-30, .cls-31 {
        stroke-miterlimit: 10;
      }

      .cls-1, .cls-3, .cls-6, .cls-12, .cls-15, .cls-23, .cls-25 {
        fill: none;
      }

      .cls-1, .cls-6, .cls-15 {
        stroke-width: 2px;
      }

      .cls-1, .cls-25 {
        stroke: #d43c3c;
      }

      .cls-2, .cls-4 {
        fill: #b28f42;
      }

      .cls-2, .cls-5, .cls-7, .cls-8, .cls-9, .cls-10, .cls-18, .cls-19, .cls-20, .cls-22, .cls-27, .cls-29, .cls-31 {
        stroke: #000;
      }

      .cls-3, .cls-15 {
        stroke: #fff;
      }

      .cls-4 {
        stroke: #b28f42;
      }

      .cls-4, .cls-13, .cls-23, .cls-25, .cls-26, .cls-27, .cls-28 {
        stroke-width: 4px;
      }

      .cls-5 {
        fill: #87898b;
      }

      .cls-6, .cls-12, .cls-13, .cls-14, .cls-23 {
        stroke: #2c2c2c;
      }

      .cls-8, .cls-26 {
        fill: #888a8b;
      }

      .cls-9, .cls-13, .cls-14 {
        fill: #2c2c2c;
      }

      .cls-10 {
        fill: #f8cb43;
      }

      .cls-11 {
        stroke: #1d1d1b;
      }

      .cls-11, .cls-20, .cls-21 {
        fill: #facd45;
      }

      .cls-12 {
        stroke-width: 3px;
      }

      .cls-16 {
        fill: #87898a;
        stroke: #87898a;
      }

      .cls-17 {
        fill: #e42021;
      }

      .cls-17, .cls-30 {
        stroke: #e42021;
      }

      .cls-18 {
        fill: #2b3325;
      }

      .cls-19 {
        fill: #8c8c8d;
      }

      .cls-21 {
        stroke: #facd45;
      }

      .cls-22 {
        fill: #f8cc44;
      }

      .cls-24 {
        fill: #444;
        stroke: #444;
      }

      .cls-26 {
        stroke: #888a8b;
      }

      .cls-27 {
        fill: #3f3f3f;
      }

      .cls-28 {
        fill: #727272;
        stroke: #616160;
      }

      .cls-29 {
        fill: #2a4724;
      }

      .cls-30 {
        fill: #e52621;
      }

      .cls-31 {
        fill: #6b8fa1;
      }
    </style>
  </defs>
  <g id="Forklifts">
    <g id="Forklift">
      <path class="cls-22" d="m629.22,737.12v7.97c0,1.67,1.5,3.03,3.35,3.03h8.04c1.85,0,3.35-1.36,3.35-3.03v-7.97h-14.73Z"/>
      <rect class="cls-7" x="630.5" y="726.86" width="1.45" height="9.91" rx=".25" ry=".25"/>
      <rect class="cls-7" x="641.19" y="726.86" width="1.45" height="9.91" rx=".25" ry=".25"/>
      <rect class="cls-7" x="635.86" y="730.96" width="1.45" height="10.17" rx=".25" ry=".25" transform="translate(1372.63 99.46) rotate(90)"/>
      <path class="cls-19" d="m629.52,736.75c-.2-.04-.34-.12-.34-.21v-3.27c0-.13.26-.23.58-.23h3.08c.32,0,.58.1.58.23v3.27c0,.13-.26.23-.58.23h-3.08c-.09,0-.17,0-.24-.02"/>
      <path class="cls-19" d="m640.04,736.75c-.2-.04-.34-.12-.34-.21v-3.27c0-.13.26-.23.58-.23h3.08c.32,0,.58.1.58.23v3.27c0,.13-.26.23-.58.23h-3.08c-.09,0-.17,0-.24-.02"/>
      <path class="cls-10" d="m632.3,743.22c-.48-.07-.81-.23-.81-.41v-6.5c0-.25.62-.45,1.39-.45h7.41c.77,0,1.39.2,1.39.45v6.5c0,.25-.62.45-1.39.45h-7.41c-.21,0-.41-.01-.58-.04"/>
      <rect class="cls-19" x="631.89" y="739.45" width="9.39" height="0"/>
      <rect class="cls-19" x="633.29" y="739.33" width="6.59" height=".24" transform="translate(1376.03 102.86) rotate(90)"/>
    </g>
    <g id="Forklift_copia" data-name="Forklift copia">
      <path class="cls-22" d="m641.71,761.22v7.97c0,1.67,1.5,3.03,3.35,3.03h8.04c1.85,0,3.35-1.36,3.35-3.03v-7.97h-14.73Z"/>
      <rect class="cls-7" x="642.98" y="750.96" width="1.45" height="9.91" rx=".25" ry=".25"/>
      <rect class="cls-7" x="653.67" y="750.96" width="1.45" height="9.91" rx=".25" ry=".25"/>
      <rect class="cls-7" x="648.35" y="755.06" width="1.45" height="10.17" rx=".25" ry=".25" transform="translate(1409.22 111.07) rotate(90)"/>
      <path class="cls-19" d="m642.01,760.85c-.2-.04-.34-.12-.34-.21v-3.27c0-.13.26-.23.58-.23h3.08c.32,0,.58.1.58.23v3.27c0,.13-.26.23-.58.23h-3.08c-.09,0-.17,0-.24-.02"/>
      <path class="cls-19" d="m652.53,760.85c-.2-.04-.34-.12-.34-.21v-3.27c0-.13.26-.23.58-.23h3.08c.32,0,.58.1.58.23v3.27c0,.13-.26.23-.58.23h-3.08c-.09,0-.17,0-.24-.02"/>
      <path class="cls-10" d="m644.79,767.31c-.48-.07-.81-.23-.81-.41v-6.5c0-.25.62-.45,1.39-.45h7.41c.77,0,1.39.2,1.39.45v6.5c0,.25-.62.45-1.39.45h-7.41c-.21,0-.41-.01-.58-.04"/>
      <rect class="cls-19" x="644.38" y="763.55" width="9.39" height="0"/>
      <rect class="cls-19" x="645.78" y="763.42" width="6.59" height=".24" transform="translate(1412.62 114.47) rotate(90)"/>
    </g>
    <g id="Forklift_copia_2" data-name="Forklift copia 2">
      <path class="cls-22" d="m353.64,415.12l4.66,6.47c.98,1.36,2.98,1.58,4.48.5l6.53-4.7c1.5-1.08,1.92-3.05.95-4.41l-4.66-6.47-11.96,8.6Z"/>
      <rect class="cls-7" x="351.44" y="404.69" width="1.45" height="9.91" rx=".25" ry=".25" transform="translate(-172.94 282.79) rotate(-35.73)"/>
      <rect class="cls-7" x="360.12" y="398.45" width="1.45" height="9.91" rx=".25" ry=".25" transform="translate(-167.66 286.68) rotate(-35.73)"/>
      <rect class="cls-7" x="358.27" y="404.86" width="1.45" height="10.17" rx=".25" ry=".25" transform="translate(482.11 -120.88) rotate(54.27)"/>
      <path class="cls-19" d="m353.67,414.65c-.18.09-.34.1-.4.03l-1.91-2.66c-.07-.1.08-.34.34-.52l2.5-1.8c.26-.19.53-.26.6-.15l1.91,2.66c.07.1-.08.34-.34.52l-2.5,1.8c-.07.05-.14.09-.21.12"/>
      <path class="cls-19" d="m362.21,408.5c-.18.09-.34.1-.4.03l-1.91-2.66c-.07-.1.08-.34.34-.52l2.5-1.8c.26-.19.53-.26.6-.15l1.91,2.66c.07.1-.08.34-.34.52l-2.5,1.8c-.07.05-.14.09-.21.12"/>
      <path class="cls-10" d="m359.7,418.27c-.43.22-.79.29-.9.14l-3.8-5.28c-.15-.2.24-.73.87-1.18l6.01-4.33c.63-.45,1.25-.65,1.4-.45l3.8,5.28c.15.2-.24.73-.87,1.18l-6.01,4.33c-.17.12-.34.23-.5.31"/>
      <rect class="cls-19" x="356.28" y="412.71" width="9.39" height="0" transform="translate(-173.07 288.51) rotate(-35.73)"/>
      <rect class="cls-19" x="357.68" y="412.59" width="6.59" height=".24" transform="translate(485.17 -121.34) rotate(54.27)"/>
    </g>
  </g>
  <g id="Trucks">
    <rect class="cls-18" x="610.05" y="671.81" width="59.42" height="32.48" transform="translate(1327.81 48.29) rotate(90)"/>
    <rect class="cls-18" x="664.59" y="680.67" width="59.42" height="32.48" transform="translate(1269.43 -101.18) rotate(80.67)"/>
    <rect class="cls-18" x="592.67" y="326.25" width="59.42" height="32.48" transform="translate(873.13 -322.18) rotate(81.85)"/>
    <rect class="cls-18" x="608.43" y="238.76" width="59.42" height="32.48" transform="translate(1276.27 510) rotate(180)"/>
    <rect class="cls-18" x="666.87" y="179.37" width="59.42" height="32.48" transform="translate(1302.09 -200.43) rotate(131.13)"/>
    <rect class="cls-18" x="340.05" y="246.34" width="59.42" height="32.48" transform="translate(632.34 -107.17) rotate(90)"/>
    <rect class="cls-18" x="264.24" y="259.81" width="59.42" height="32.48"/>
    <rect class="cls-18" x="399.56" y="220.24" width="59.42" height="32.48" transform="translate(882.14 49.13) rotate(128.68)"/>
    <rect class="cls-18" x="614.67" y="501.81" width="59.42" height="32.48" transform="translate(450.85 -285.78) rotate(37.67)"/>
  </g>
  <g id="Stairs">
    <g id="Stair">
      <rect class="cls-24" x="611.71" y="433.74" width="34.15" height="55.76" transform="translate(1090.4 -167.16) rotate(90)"/>
      <line class="cls-15" x1="602.92" y1="449.62" x2="653.49" y2="449.62"/>
      <line class="cls-15" x1="602.92" y1="455.62" x2="653.49" y2="455.62"/>
      <line class="cls-15" x1="602.92" y1="461.62" x2="653.49" y2="461.62"/>
      <line class="cls-15" x1="602.92" y1="467.62" x2="653.49" y2="467.62"/>
      <line class="cls-15" x1="602.92" y1="473.62" x2="653.49" y2="473.62"/>
    </g>
    <g id="Stair_copia" data-name="Stair copia">
      <rect class="cls-24" x="568.1" y="607.15" width="31.27" height="39.19"/>
      <line class="cls-15" x1="572.74" y1="644.92" x2="572.74" y2="609.38"/>
      <line class="cls-15" x1="578.24" y1="644.92" x2="578.24" y2="609.38"/>
      <line class="cls-15" x1="583.73" y1="644.92" x2="583.73" y2="609.38"/>
      <line class="cls-15" x1="589.23" y1="644.92" x2="589.23" y2="609.38"/>
      <line class="cls-15" x1="594.72" y1="644.92" x2="594.72" y2="609.38"/>
    </g>
    <g id="Stair_copia_2" data-name="Stair copia 2">
      <rect class="cls-24" x="686.85" y="481.79" width="34.15" height="65.09"/>
      <line class="cls-15" x1="691.93" y1="544.52" x2="691.93" y2="485.48"/>
      <line class="cls-15" x1="697.93" y1="544.52" x2="697.93" y2="485.48"/>
      <line class="cls-15" x1="703.93" y1="544.52" x2="703.93" y2="485.48"/>
      <line class="cls-15" x1="709.93" y1="544.52" x2="709.93" y2="485.48"/>
      <line class="cls-15" x1="715.93" y1="544.52" x2="715.93" y2="485.48"/>
      <rect class="cls-24" x="717.34" y="481.79" width="34.15" height="65.09"/>
      <line class="cls-15" x1="722.41" y1="544.52" x2="722.41" y2="485.48"/>
      <line class="cls-15" x1="728.41" y1="544.52" x2="728.41" y2="485.48"/>
      <line class="cls-15" x1="734.41" y1="544.52" x2="734.41" y2="485.48"/>
      <line class="cls-15" x1="740.41" y1="544.52" x2="740.41" y2="485.48"/>
      <line class="cls-15" x1="746.41" y1="544.52" x2="746.41" y2="485.48"/>
    </g>
    <g id="Stair_copia_3" data-name="Stair copia 3">
      <rect class="cls-24" x="686.85" y="581.79" width="34.15" height="65.09"/>
      <line class="cls-15" x1="691.93" y1="644.52" x2="691.93" y2="585.48"/>
      <line class="cls-15" x1="697.93" y1="644.52" x2="697.93" y2="585.48"/>
      <line class="cls-15" x1="703.93" y1="644.52" x2="703.93" y2="585.48"/>
      <line class="cls-15" x1="709.93" y1="644.52" x2="709.93" y2="585.48"/>
      <line class="cls-15" x1="715.93" y1="644.52" x2="715.93" y2="585.48"/>
      <rect class="cls-24" x="717.34" y="581.79" width="34.15" height="65.09"/>
      <line class="cls-15" x1="722.41" y1="644.52" x2="722.41" y2="585.48"/>
      <line class="cls-15" x1="728.41" y1="644.52" x2="728.41" y2="585.48"/>
      <line class="cls-15" x1="734.41" y1="644.52" x2="734.41" y2="585.48"/>
      <line class="cls-15" x1="740.41" y1="644.52" x2="740.41" y2="585.48"/>
      <line class="cls-15" x1="746.41" y1="644.52" x2="746.41" y2="585.48"/>
    </g>
    <g id="Stair_copia_4" data-name="Stair copia 4">
      <rect class="cls-24" x="417.31" y="468.9" width="23.39" height="20.33"/>
      <line class="cls-3" x1="438.27" y1="488.49" x2="438.27" y2="470.05"/>
      <line class="cls-3" x1="435.27" y1="488.49" x2="435.27" y2="470.05"/>
      <line class="cls-3" x1="432.27" y1="488.49" x2="432.27" y2="470.05"/>
      <line class="cls-3" x1="429.27" y1="488.49" x2="429.27" y2="470.05"/>
      <line class="cls-3" x1="426.27" y1="488.49" x2="426.27" y2="470.05"/>
      <line class="cls-3" x1="423.27" y1="488.49" x2="423.27" y2="470.05"/>
      <line class="cls-3" x1="420.27" y1="488.49" x2="420.27" y2="470.05"/>
    </g>
    <g id="Stair_copia_5" data-name="Stair copia 5">
      <rect class="cls-24" x="403.66" y="338.04" width="9.64" height="12.43" transform="translate(752.73 -64.23) rotate(90)"/>
      <line class="cls-3" x1="402.9" y1="348.25" x2="413.48" y2="348.25"/>
      <line class="cls-3" x1="402.9" y1="346.25" x2="413.48" y2="346.25"/>
      <line class="cls-3" x1="402.9" y1="344.25" x2="413.48" y2="344.25"/>
      <line class="cls-3" x1="402.9" y1="342.25" x2="413.48" y2="342.25"/>
      <line class="cls-3" x1="402.9" y1="340.25" x2="413.48" y2="340.25"/>
    </g>
    <g id="Stair_copia_6" data-name="Stair copia 6">
      <rect class="cls-24" x="440.66" y="338.04" width="9.64" height="12.43" transform="translate(789.73 -101.23) rotate(90)"/>
      <line class="cls-3" x1="439.9" y1="348.25" x2="450.48" y2="348.25"/>
      <line class="cls-3" x1="439.9" y1="346.25" x2="450.48" y2="346.25"/>
      <line class="cls-3" x1="439.9" y1="344.25" x2="450.48" y2="344.25"/>
      <line class="cls-3" x1="439.9" y1="342.25" x2="450.48" y2="342.25"/>
      <line class="cls-3" x1="439.9" y1="340.25" x2="450.48" y2="340.25"/>
    </g>
    <g id="Stair_copia_7" data-name="Stair copia 7">
      <rect class="cls-24" x="186.17" y="527.68" width="9.64" height="12.43" transform="translate(724.88 342.91) rotate(90)"/>
      <line class="cls-3" x1="185.4" y1="537.9" x2="195.99" y2="537.9"/>
      <line class="cls-3" x1="185.4" y1="535.9" x2="195.99" y2="535.9"/>
      <line class="cls-3" x1="185.4" y1="533.9" x2="195.99" y2="533.9"/>
      <line class="cls-3" x1="185.4" y1="531.9" x2="195.99" y2="531.9"/>
      <line class="cls-3" x1="185.4" y1="529.9" x2="195.99" y2="529.9"/>
    </g>
    <g id="Stair_copia_8" data-name="Stair copia 8">
      <rect class="cls-24" x="174.13" y="571.16" width="9.64" height="12.43" transform="translate(357.91 1154.75) rotate(-180)"/>
      <line class="cls-3" x1="174.95" y1="571.79" x2="174.95" y2="582.38"/>
      <line class="cls-3" x1="176.95" y1="571.79" x2="176.95" y2="582.38"/>
      <line class="cls-3" x1="178.95" y1="571.79" x2="178.95" y2="582.38"/>
      <line class="cls-3" x1="180.95" y1="571.79" x2="180.95" y2="582.38"/>
      <line class="cls-3" x1="182.95" y1="571.79" x2="182.95" y2="582.38"/>
    </g>
    <g id="Stair_copia_9" data-name="Stair copia 9">
      <rect class="cls-24" x="908.27" y="206.92" width="21.62" height="20.34"/>
      <line class="cls-15" x1="911.48" y1="226.52" x2="911.48" y2="208.08"/>
      <line class="cls-15" x1="915.28" y1="226.52" x2="915.28" y2="208.08"/>
      <line class="cls-15" x1="919.08" y1="226.52" x2="919.08" y2="208.08"/>
      <line class="cls-15" x1="922.88" y1="226.52" x2="922.88" y2="208.08"/>
      <line class="cls-15" x1="926.67" y1="226.52" x2="926.67" y2="208.08"/>
    </g>
    <g id="Stair_copia_10" data-name="Stair copia 10">
      <rect class="cls-24" x="908.27" y="231.92" width="21.62" height="20.34"/>
      <line class="cls-15" x1="911.48" y1="251.52" x2="911.48" y2="233.08"/>
      <line class="cls-15" x1="915.28" y1="251.52" x2="915.28" y2="233.08"/>
      <line class="cls-15" x1="919.08" y1="251.52" x2="919.08" y2="233.08"/>
      <line class="cls-15" x1="922.88" y1="251.52" x2="922.88" y2="233.08"/>
      <line class="cls-15" x1="926.67" y1="251.52" x2="926.67" y2="233.08"/>
    </g>
  </g>
  <g id="Export">
    <polyline class="cls-23" points="812.44 360.53 762.39 360.53 762.39 261.02 887.95 261.02"/>
    <polyline class="cls-23" points="890.29 281.51 890.29 360.53 836.73 360.53"/>
    <path class="cls-5" d="m932.49,126.8c0,3.35,1.83,5.1,1.76,12.1-.06,5.41,3.02,7.52,4.68,11.17,4.58,10.06,5.27,10.84,5.71,13.82.53,3.62-.23,4.23-.15,10.37.1,7.1-.91,9.92,1.02,11.3,1.54,1.09,4.22-1.21,6,.13.65.49.66,1.02,1.46,1.33.81.31,1.35-.02,3.22-.4,1.29-.26.86-.07,3.8-.53,1.46-.23,2.19-.34,3.07-.53,1.85-.4,1.89-.55,2.93-.66,1.07-.11,1.14.04,3.07,0,1.5-.03,2.26-.05,2.78-.27,1.48-.61,2.04-2.12,2.2-2.53.69-1.83-.03-3.16-.44-5.18-.42-2.05-.08-4.38.59-9.04.43-2.99.62-2.8,1.17-6.38.55-3.56.39-3.97.88-7.31.68-4.65,1.02-6.98,1.9-8.37,2.09-3.31-.21-2.05,1.61-5.49.96-1.82.82-3.22.95-5.85.1-2.05,1.06-3.89.73-8.41-.17-2.3.42-4.88.37-6.16-.22-5.78-2.74-5.72-3.85-6.18-1.68-.69-3.19.36-12.68,1.37-6.19.66-10.13-1.88-15.8-.37-1.29.34-.48.41-6.44,3.32-4.19,2.05-4.05,3.73-6.63,3.78-.37,0-1.29-.73-2.24-.6-.77.1-1.65.29-1.66,5.59Z"/>
    <rect class="cls-27" x="799.56" y="265.04" width="86.74" height="16.46" rx="2.28" ry="2.28"/>
    <line class="cls-28" x1="806.78" y1="266" x2="806.78" y2="281.9"/>
    <line class="cls-28" x1="814.78" y1="266" x2="814.78" y2="281.9"/>
    <line class="cls-28" x1="822.78" y1="266" x2="822.78" y2="281.9"/>
    <line class="cls-28" x1="830.78" y1="266" x2="830.78" y2="281.9"/>
    <line class="cls-28" x1="838.78" y1="266" x2="838.78" y2="281.9"/>
    <line class="cls-28" x1="846.78" y1="266" x2="846.78" y2="281.9"/>
    <line class="cls-28" x1="854.78" y1="266" x2="854.78" y2="281.9"/>
    <line class="cls-28" x1="862.78" y1="266" x2="862.78" y2="281.9"/>
    <line class="cls-28" x1="870.78" y1="266" x2="870.78" y2="281.9"/>
    <line class="cls-28" x1="878.78" y1="266" x2="878.78" y2="281.9"/>
    <polyline class="cls-25" points="762.39 263.17 762.39 265.04 762.39 295.95"/>
    <polyline class="cls-23" points="672.83 444.04 672.83 380.73 700.78 380.73 737.89 380.73 737.89 421.56 754.2 421.56 762.39 413.36 762.39 360.53"/>
    <line class="cls-23" x1="701.88" y1="413.87" x2="701.88" y2="380.73"/>
    <polyline class="cls-23" points="685.12 379.69 685.12 318.68 761.03 318.68"/>
    <path class="cls-5" d="m839.85,258.65h46.45l-.91-45.64-5.16-3.93-.51-5.6-2.83-3.44s-3.64-4.22-3.85-4.61c-.2-.39-2.83-2.94-2.83-2.94l-5.67-1.57-3.85.88-7.19.1-2.63.69s-1.92,1.08-2.33,1.47-2.83,2.85-2.83,3.14-2.23,4.02-2.23,4.02c0,0-2.13,6.67-2.13,7.36s-1.72,10.01-1.52,10.5c.2.49-.02,10.11-.02,10.11l.02,29.45Z"/>
    <line class="cls-23" x1="886.78" y1="261.02" x2="922" y2="261.02"/>
    <path class="cls-5" d="m869.07,124.96c.14-.03.29-.06.43-.08l6.86-.87,1.82-.22c.5-.06,1.01-.03,1.5.08l6.42,1.49,5.57,1.29,2.6.6c1.09.25,2.05.93,2.7,1.89l1.73,2.59,2.26,3.14c.27.37.48.79.64,1.23l.73,2.07c.54,1.51.35,3.24-.51,4.62l-.42.68c-.25.4-.44.83-.58,1.29l-.79,2.63c-.31,1.04-.93,1.96-1.75,2.62l-3.16,2.52c-.34.27-.7.49-1.09.66l-2.81,1.22c-.1.04-.19.09-.29.14l-4.84,2.5c-.24.12-.48.22-.73.3l-3.18,1.01c-1.31.42-2.7.21-3.82-.56l-3.57-2.46c-.67-.46-1.45-.73-2.25-.77l-2.74-.13c-.66-.03-1.31-.22-1.89-.54l-4.76-2.64-3.4-1.82c-.12-.06-.24-.13-.35-.21l-1.67-1.1c-1.68-1.11-2.48-3.28-1.99-5.38l.27-1.16c.13-.55.34-1.07.62-1.55l2.16-3.65c.29-.49.65-.93,1.08-1.29l2.67-2.3c.45-.39.83-.86,1.13-1.38l1.7-2.99c.08-.15.16-.3.23-.45l.06-.14c.66-1.47,1.92-2.54,3.4-2.88Z"/>
    <path class="cls-20" d="m891.43,160.93h-6.86c-.3,0-.54.8-.54,1.78v15.59c0,.98.24,1.78.54,1.78h6.86c.3,0,.54-.8.54-1.78v-15.59c0-.98-.24-1.78-.54-1.78h0Z"/>
    <rect class="cls-29" x="893.5" y="157.66" width="5.05" height="3.22" transform="translate(285.11 833.82) rotate(-57.91)"/>
    <rect class="cls-21" x="896.76" y="164.28" width="6.8" height="0" transform="translate(356.08 899.98) rotate(-63.86)"/>
    <rect class="cls-21" x="896.76" y="164.28" width="6.8" height="0" transform="translate(164.46 -379.8) rotate(26.14)"/>
    <path class="cls-20" d="m899.44,165.75c-.81-.4-1.14-1.38-.75-2.19s1.38-1.14,2.19-.75,1.14,1.38.75,2.19-1.38,1.14-2.19.75Z"/>
    <path class="cls-23" d="m880.27,205.12h50.12"/>
    <path class="cls-23" d="m907.78,229.7h39.44"/>
    <path class="cls-5" d="m1029.82,199.94c-.1.06-.2.12-.3.17l-4.91,2.39-1.31.63c-.36.17-.75.28-1.14.31l-5.14.39-4.46.34-2.08.16c-.88.07-1.75-.23-2.47-.85l-1.91-1.64-2.43-1.96c-.29-.23-.55-.51-.77-.83l-1.04-1.47c-.76-1.08-1.03-2.51-.72-3.83l.15-.65c.09-.38.13-.78.12-1.17l-.04-2.3c-.02-.91.22-1.8.68-2.53l1.75-2.8c.19-.3.41-.56.65-.79l1.81-1.68c.06-.06.12-.12.18-.18l3.01-3.2c.15-.16.3-.3.47-.42l2.13-1.59c.88-.66,1.96-.84,2.98-.5l3.25,1.09c.61.2,1.25.22,1.86.06l2.07-.57c.5-.14,1.02-.15,1.54-.03l4.18.94,2.97.62c.1.02.21.05.31.08l1.51.47c1.52.48,2.63,2.01,2.77,3.82l.08,1c.04.47,0,.94-.09,1.39l-.74,3.46c-.1.46-.27.9-.49,1.3l-1.44,2.5c-.24.42-.42.89-.51,1.39l-.55,2.82c-.03.14-.05.28-.06.42v.13c-.15,1.34-.84,2.51-1.86,3.15Z"/>
  </g>
  <g id="Containers">
    <g id="Container">
      <rect class="cls-31" x="844.49" y="173.19" width="14.83" height="14.83" transform="translate(-18.47 208.98) rotate(-13.84)"/>
      <path class="cls-9" d="m849.55,176.22s.2-.3.51-.33c.28-.03.48.16.59.26.3.28.35.65.37.77.05.44-.12.8-.11.8.01,0,.13-.32.11-.33-.03-.01-.33.38-.4.88-.06.39.07.46,0,.84-.03.16-.1.54-.4.77-.19.15-.47.16-1.02.18-.76.03-1.02-.07-1.1-.11-.17-.08-.34-.15-.48-.33-.21-.28-.11-.54-.33-.7-.18-.13-.37-.03-.44-.15-.08-.14.32-.39.26-.55-.05-.12-.28-.03-.44-.18-.15-.15-.16-.45-.04-.62.06-.09.2-.13.48-.22.11-.04.16-.05.4-.11.53-.14.61-.16.62-.15.01.03-.21.19-.26.15-.05-.05.11-.4.4-.62.33-.25.74-.26.73-.29,0-.03-.26-.01-.26,0,0,0,.14.02.8.04Z"/>
      <path class="cls-9" d="m851.68,180.54s-.13.34-.42.44c-.27.09-.5-.04-.63-.11-.36-.2-.5-.55-.54-.66-.15-.41-.07-.81-.09-.81-.01,0-.05.34-.03.35.03,0,.23-.45.18-.95-.04-.39-.18-.43-.2-.82,0-.16-.03-.54.21-.84.15-.19.42-.27.95-.42.73-.21,1.01-.17,1.09-.16.19.03.37.06.54.21.27.22.24.5.49.6.21.08.37-.06.46.04.12.12-.22.46-.12.59.08.1.28-.04.47.07.18.11.27.4.18.6-.04.1-.16.18-.41.33-.1.06-.15.09-.36.2-.48.26-.56.31-.57.29-.02-.03.16-.23.21-.2.06.03-.01.42-.24.7-.26.33-.65.43-.64.46.01.02.25-.05.25-.06,0,0-.14.01-.79.16Z"/>
      <path class="cls-9" d="m852.37,181.7s.36.05.52.31c.15.24.07.5.03.64-.11.4-.43.61-.52.67-.37.24-.77.25-.77.26,0,.01.34-.02.34-.05,0-.03-.48-.12-.97.03-.38.12-.38.27-.75.38-.15.04-.53.15-.87-.02-.22-.1-.35-.35-.62-.83-.37-.66-.39-.94-.39-1.03,0-.19-.02-.37.08-.57.16-.32.43-.34.47-.61.04-.22-.14-.35-.07-.46.09-.14.5.11.61-.02.08-.1-.1-.26-.03-.47.07-.2.33-.35.54-.31.11.02.21.12.41.33.08.08.12.12.28.31.36.41.42.48.41.49-.02.03-.26-.11-.25-.16.02-.07.41-.08.74.08.38.18.56.54.59.52.02-.02-.1-.23-.11-.23,0,0,.04.13.33.74Z"/>
      <path class="cls-9" d="m852.41,180.96s-.1-.35.08-.6c.16-.23.43-.26.58-.28.41-.05.73.16.82.22.36.25.53.62.54.61.01,0-.15-.31-.18-.3-.03.01.07.49.4.88.26.3.4.24.64.55.1.12.34.43.32.81-.01.24-.18.46-.53.9-.47.59-.72.72-.8.76-.17.08-.34.16-.56.15-.35-.02-.48-.27-.74-.2-.22.05-.27.26-.4.24-.16-.03-.09-.5-.25-.55-.12-.04-.2.2-.42.21-.21.02-.45-.17-.5-.38-.02-.11.03-.24.14-.5.04-.1.07-.16.18-.38.24-.49.28-.57.29-.57.03.01,0,.28-.06.29-.07,0-.23-.35-.21-.71.02-.42.28-.73.26-.75-.02-.01-.18.19-.17.19,0,0,.11-.09.55-.59Z"/>
      <path class="cls-9" d="m853.35,178.11s-.31-.18-.36-.49c-.04-.28.12-.49.21-.6.26-.32.63-.4.74-.42.43-.08.81.07.81.05,0-.01-.33-.11-.34-.09-.01.03.4.3.9.34.39.03.45-.11.84-.06.16.02.54.07.79.35.16.18.19.45.25,1.01.09.75,0,1.02-.03,1.1-.06.18-.13.35-.3.5-.27.23-.53.15-.67.38-.12.19,0,.37-.12.45-.14.09-.41-.29-.57-.22-.11.06,0,.28-.15.45-.14.16-.44.2-.62.08-.09-.06-.14-.19-.25-.46-.04-.11-.06-.16-.14-.39-.17-.52-.21-.6-.19-.61.03-.02.2.2.16.25-.04.06-.41-.09-.65-.36-.28-.31-.31-.72-.34-.71-.03,0,0,.26.02.26,0,0,.01-.14-.02-.81Z"/>
    </g>
    <g id="Container_copia" data-name="Container copia">
      <rect class="cls-31" x="806.92" y="182.45" width="14.83" height="14.83" transform="translate(77.87 -206.13) rotate(15.14)"/>
      <path class="cls-9" d="m814.39,184.89s.32-.17.61-.04c.26.11.34.37.39.51.13.39,0,.74-.05.85-.17.41-.5.64-.49.65.01,0,.27-.21.26-.23-.02-.02-.47.17-.78.57-.24.31-.16.44-.41.74-.1.12-.35.42-.72.48-.24.04-.49-.09-.98-.34-.68-.34-.85-.56-.91-.63-.11-.15-.23-.3-.26-.52-.05-.35.16-.53.05-.77-.1-.2-.31-.21-.31-.34,0-.17.47-.19.49-.36.01-.13-.23-.16-.3-.37-.06-.2.07-.47.27-.56.1-.04.24-.02.52.04.11.02.17.04.41.1.53.14.62.15.61.17,0,.03-.28.06-.29,0-.02-.07.29-.3.65-.35.42-.06.77.13.78.1,0-.03-.22-.13-.22-.12,0,0,.11.09.69.42Z"/>
      <path class="cls-9" d="m814.16,189.69s-.27.24-.58.18c-.28-.05-.42-.28-.5-.4-.22-.35-.17-.72-.15-.84.07-.44.33-.74.32-.75-.01,0-.21.27-.19.29.02.02.41-.28.62-.74.16-.36.05-.46.22-.81.07-.14.24-.49.59-.64.22-.09.49-.03,1.04.09.74.17.96.34,1.03.39.15.12.29.24.37.44.13.33-.03.55.14.76.14.17.35.13.39.26.04.16-.41.29-.39.46.02.12.27.1.38.29.1.18.04.48-.13.61-.08.07-.23.07-.52.09-.11,0-.17,0-.42,0-.55,0-.64,0-.64-.02,0-.03.25-.13.29-.07.04.06-.21.36-.55.5-.39.16-.78.06-.78.09,0,.03.24.08.25.07,0,0-.13-.06-.77-.25Z"/>
      <path class="cls-9" d="m814.2,191.04s.29.22.31.53c.01.28-.18.47-.28.57-.29.29-.67.32-.78.33-.44.03-.79-.16-.8-.14,0,.01.31.15.32.12.01-.03-.36-.34-.86-.44-.39-.08-.46.05-.84-.04-.15-.04-.53-.13-.75-.43-.14-.19-.14-.47-.14-1.03,0-.76.12-1.01.16-1.09.08-.17.17-.34.35-.46.29-.2.54-.09.71-.3.14-.18.05-.37.16-.43.15-.08.38.34.54.28.12-.04.04-.28.2-.43.15-.14.46-.14.62-.01.08.07.12.21.2.48.03.11.04.17.09.41.11.53.14.62.12.63-.03.01-.18-.22-.14-.26.05-.05.4.13.6.43.24.34.23.75.26.74.03,0,.02-.26.01-.26,0,0-.03.14-.07.8Z"/>
      <path class="cls-9" d="m814.6,190.41s.09-.35.37-.49c.25-.12.5-.02.64.04.38.16.56.49.61.59.2.39.16.79.18.79.01,0,.01-.35-.01-.35-.03,0-.17.47-.07.96.08.39.23.41.29.79.03.16.09.54-.11.86-.13.2-.38.31-.9.53-.7.29-.98.28-1.07.28-.19-.01-.37-.02-.56-.14-.3-.19-.29-.47-.55-.54-.22-.06-.36.1-.46.02-.13-.11.17-.48.05-.6-.09-.09-.27.07-.48-.02-.19-.09-.31-.37-.25-.57.03-.1.14-.19.37-.37.09-.07.14-.1.34-.24.45-.31.52-.37.53-.35.02.02-.13.25-.19.23-.07-.03-.03-.42.16-.72.22-.35.6-.5.58-.53-.01-.02-.24.08-.24.09,0,0,.14-.03.77-.25Z"/>
      <path class="cls-9" d="m816.81,188.37s-.19-.31-.08-.6c.09-.26.34-.37.48-.42.38-.16.74-.04.85,0,.42.14.67.45.68.44,0-.01-.23-.26-.25-.24-.02.02.21.46.63.74.33.22.45.13.76.36.13.09.44.32.53.69.05.23-.05.49-.27,1.01-.29.7-.5.89-.56.95-.14.12-.28.25-.5.29-.35.07-.54-.13-.77,0-.2.11-.19.32-.32.34-.17.02-.22-.46-.39-.46-.13,0-.14.24-.35.32-.2.07-.48-.04-.58-.23-.05-.09-.03-.24,0-.52.01-.11.03-.17.07-.41.1-.54.11-.63.13-.63.03,0,.08.27.02.29-.07.03-.32-.27-.39-.63-.09-.41.08-.78.04-.79-.03,0-.12.23-.11.23,0,0,.08-.12.37-.71Z"/>
    </g>
    <g id="Container_copia_2" data-name="Container copia 2">
      <rect class="cls-31" x="1375.96" y="103.54" width="14.83" height="14.83" transform="translate(77.02 -357.52) rotate(15.14)"/>
      <path class="cls-9" d="m1383.44,105.98s.32-.17.61-.04c.26.11.34.37.39.51.13.39,0,.74-.05.85-.17.41-.5.64-.49.65.01,0,.27-.21.26-.23-.02-.02-.47.17-.78.57-.24.31-.16.44-.41.74-.1.12-.35.42-.72.48-.24.04-.49-.09-.98-.34-.68-.34-.85-.56-.91-.63-.11-.15-.23-.3-.26-.52-.05-.35.16-.53.05-.77-.1-.2-.31-.21-.31-.34,0-.17.47-.19.49-.36.01-.13-.23-.16-.3-.37-.06-.2.07-.47.27-.56.1-.04.24-.02.52.04.11.02.17.04.41.1.53.14.62.15.61.17,0,.03-.28.06-.29,0-.02-.07.29-.3.65-.35.42-.06.77.13.78.1,0-.03-.22-.13-.22-.12,0,0,.11.09.69.42Z"/>
      <path class="cls-9" d="m1383.21,110.78s-.27.24-.58.18c-.28-.05-.42-.28-.5-.4-.22-.35-.17-.72-.15-.84.07-.44.33-.74.32-.75-.01,0-.21.27-.19.29.02.02.41-.28.62-.74.16-.36.05-.46.22-.81.07-.14.24-.49.59-.64.22-.09.49-.03,1.04.09.74.17.96.34,1.03.39.15.12.29.24.37.44.13.33-.03.55.14.76.14.17.35.13.39.26.04.16-.41.29-.39.46.02.12.27.1.38.29.1.18.04.48-.13.61-.08.07-.23.07-.52.09-.11,0-.17,0-.42,0-.55,0-.64,0-.64-.02,0-.03.25-.13.29-.07.04.06-.21.36-.55.5-.39.16-.78.06-.78.09,0,.03.24.08.25.07,0,0-.13-.06-.77-.25Z"/>
      <path class="cls-9" d="m1383.25,112.13s.29.22.31.53c.01.28-.18.47-.28.57-.29.29-.67.32-.78.33-.44.03-.79-.16-.8-.14,0,.01.31.15.32.12.01-.03-.36-.34-.86-.44-.39-.08-.46.05-.84-.04-.15-.04-.53-.13-.75-.43-.14-.19-.14-.47-.14-1.03,0-.76.12-1.01.16-1.09.08-.17.17-.34.35-.46.29-.2.54-.09.71-.3.14-.18.05-.37.16-.43.15-.08.38.34.54.28.12-.04.04-.28.2-.43.15-.14.46-.14.62-.01.08.07.12.21.2.48.03.11.04.17.09.41.11.53.14.62.12.63-.03.01-.18-.22-.14-.26.05-.05.4.13.6.43.24.34.23.75.26.74.03,0,.02-.26.01-.26,0,0-.03.14-.07.8Z"/>
      <path class="cls-9" d="m1383.65,111.51s.09-.35.37-.49c.25-.12.5-.02.64.04.38.16.56.49.61.59.2.39.16.79.18.79.01,0,.01-.35-.01-.35-.03,0-.17.47-.07.96.08.39.23.41.29.79.03.16.09.54-.11.86-.13.2-.38.31-.9.53-.7.29-.98.28-1.07.28-.19-.01-.37-.02-.56-.14-.3-.19-.29-.47-.55-.54-.22-.06-.36.1-.46.02-.13-.11.17-.48.05-.6-.09-.09-.27.07-.48-.02-.19-.09-.31-.37-.25-.57.03-.1.14-.19.37-.37.09-.07.14-.1.34-.24.45-.31.52-.37.53-.35.02.02-.13.25-.19.23-.07-.03-.03-.42.16-.72.22-.35.6-.5.58-.53-.01-.02-.24.08-.24.09,0,0,.14-.03.77-.25Z"/>
      <path class="cls-9" d="m1385.85,109.47s-.19-.31-.08-.6c.09-.26.34-.37.48-.42.38-.16.74-.04.85,0,.42.14.67.45.68.44,0-.01-.23-.26-.25-.24-.02.02.21.46.63.74.33.22.45.13.76.36.13.09.44.32.53.69.05.23-.05.49-.27,1.01-.29.7-.5.89-.56.95-.14.12-.28.25-.5.29-.35.07-.54-.13-.77,0-.2.11-.19.32-.32.34-.17.02-.22-.46-.39-.46-.13,0-.14.24-.35.32-.2.07-.48-.04-.58-.23-.05-.09-.03-.24,0-.52.01-.11.03-.17.07-.41.1-.54.11-.63.13-.63.03,0,.08.27.02.29-.07.03-.32-.27-.39-.63-.09-.41.08-.78.04-.79-.03,0-.12.23-.11.23,0,0,.08-.12.37-.71Z"/>
    </g>
  </g>
  <g id="Security">
    <polyline class="cls-23" points="481.09 491.65 531.17 491.65 531.17 524.75"/>
    <polyline class="cls-23" points="530.39 542.97 530.39 568.34 482.59 568.34"/>
    <polyline class="cls-23" points="531.17 491.65 579.17 491.65 579.17 554.29 550.49 587.65 482.59 587.65"/>
    <rect class="cls-11" x="546.41" y="513.43" width="9.05" height="21.15" rx=".95" ry=".95"/>
    <rect class="cls-26" x="559.89" y="558.51" width="5.17" height="10.22" transform="translate(509.52 -230.89) rotate(41.13)"/>
    <rect class="cls-26" x="486.56" y="572.24" width="8.46" height="11.46"/>
    <rect class="cls-26" x="570.73" y="470.48" width="5.17" height="17.19"/>
    <line class="cls-23" x1="579.17" y1="491.65" x2="579.17" y2="444.04"/>
    <rect class="cls-26" x="486.56" y="495.57" width="9.05" height="68.96"/>
    <line class="cls-6" x1="453.21" y1="317.36" x2="453.21" y2="349.56"/>
    <line class="cls-6" x1="438.1" y1="330.17" x2="438.1" y2="380.87"/>
    <line class="cls-6" x1="415.84" y1="330.17" x2="415.84" y2="382.58"/>
    <line class="cls-6" x1="400.83" y1="349.56" x2="400.83" y2="316.63"/>
    <line class="cls-6" x1="599.37" y1="444.04" x2="599.37" y2="592.04"/>
    <path class="cls-6" d="m749.11,480.27l-85.57-.17c-3.03,0-5.49-2.46-5.49-5.49v-30.56"/>
    <path class="cls-23" d="m698.36,461.9l49.94-.27c.34,0,1.57.03,1.59.36v19.22"/>
    <line class="cls-15" x1="602.92" y1="455.62" x2="653.49" y2="455.62"/>
    <rect class="cls-20" x="706.45" y="547.53" width="8.93" height="18.44" rx=".95" ry=".95" transform="translate(1267.66 -154.16) rotate(90)"/>
    <rect class="cls-20" x="734.3" y="547.18" width="8.93" height="19.15" rx=".95" ry=".95" transform="translate(1295.51 -182.01) rotate(90)"/>
    <rect class="cls-20" x="728.77" y="410.73" width="5.33" height="11.17" rx=".95" ry=".95"/>
    <line class="cls-1" x1="751.5" y1="263.17" x2="761.03" y2="294.68"/>
    <line class="cls-6" x1="760.05" y1="295.95" x2="708.15" y2="295.95"/>
    <line class="cls-6" x1="760.05" y1="261.02" x2="708.15" y2="261.02"/>
    <polyline class="cls-23" points="550.1 490.89 550.1 425.7 593.61 425.7 593.61 376.05"/>
    <polyline class="cls-23" points="503.07 465.53 501.71 465.53 501.71 491.26"/>
    <polyline class="cls-6" points="524.29 438.78 524.29 464.53 503.07 464.53"/>
    <polyline class="cls-23" points="501.54 451.34 501.54 425.7 509.41 425.7"/>
    <line class="cls-23" x1="550.1" y1="425.7" x2="523.01" y2="425.7"/>
    <rect class="cls-13" x="440.46" y="373.61" width="37.32" height="5.4" transform="translate(918.23 752.61) rotate(180)"/>
    <rect class="cls-13" x="456.6" y="337.95" width="38.88" height="2.98" transform="translate(815.48 -136.61) rotate(90)"/>
    <rect class="cls-13" x="447.62" y="303.9" width="83.55" height="12.15"/>
    <polyline class="cls-23" points="531.17 329.36 531.17 303.9 447.08 303.9 447.08 316.04 371.8 316.04"/>
    <polyline class="cls-13" points="531.17 353.12 531.17 408.46 531.17 425.7 593.61 425.7 593.61 408.42 532.54 408.42"/>
    <line class="cls-6" x1="599.55" y1="591.48" x2="588.77" y2="605.96"/>
    <line class="cls-6" x1="589.56" y1="605.55" x2="567.63" y2="605.55"/>
    <rect class="cls-26" x="545.04" y="568.41" width=".3" height="8.53" transform="translate(698.89 -202.93) rotate(54.8)"/>
    <rect class="cls-4" x="556.08" y="556.23" width="0" height="4.17" transform="translate(-194.68 318.94) rotate(-27.43)"/>
    <rect class="cls-26" x="542.39" y="488.55" width=".3" height="14.64" transform="translate(1038.4 -46.66) rotate(90)"/>
    <rect class="cls-29" x="543.64" y="519.46" width="16.08" height="7.27" transform="translate(-192.05 680.69) rotate(-55.44)"/>
    <rect class="cls-26" x="575.06" y="498.11" width=".1" height=".1" transform="translate(1073.26 -76.95) rotate(90)"/>
    <rect class="cls-26" x="574.91" y="504.9" width=".3" height="8.53"/>
    <rect class="cls-29" x="484.66" y="558.14" width="6.24" height="2.43" transform="translate(-71.58 1047.13) rotate(-90)"/>
    <rect class="cls-29" x="484.66" y="546.73" width="6.24" height="2.43" transform="translate(-60.17 1035.72) rotate(-90)"/>
    <rect class="cls-29" x="478.1" y="523.28" width="15.7" height="2.43" transform="translate(-38.54 1010.44) rotate(-90)"/>
    <rect class="cls-29" x="478.1" y="502.21" width="15.7" height="2.43" transform="translate(-17.47 989.37) rotate(-90)"/>
    <rect class="cls-14" x="679.41" y="547.85" width="72.07" height="3.46"/>
    <rect class="cls-14" x="679.41" y="579.85" width="72.07" height="3.46"/>
    <rect class="cls-4" x="567.14" y="477.4" width="0" height="2.28" transform="translate(1309.14 487.99) rotate(140.57)"/>
    <polyline class="cls-23" points="752 648.34 750.49 648.34 737.8 648.34 722.41 670.97 722.41 710.39 732.59 725.22 732.59 802.48 641.19 802.48 601.02 763.55 599.07 761.65"/>
    <path class="cls-23" d="m641.19,803.07v1.73c0,.55-.45,1-1,1h-4.11c-.55,0-1,.45-1,1v22.55c0,.39-.23.75-.59.91l-5.95,2.67c-.13.06-.27.09-.41.09h-61.54"/>
    <path class="cls-23" d="m625.41,833.02v106.57c0,1.33-1.08,2.4-2.4,2.4h-57.89"/>
  </g>
  <g id="Boxes">
    <g id="Box">
      <rect class="cls-2" x="691.17" y="402.8" width="5.4" height="5.4"/>
    </g>
    <g id="Box_copia_2" data-name="Box copia 2">
      <rect class="cls-2" x="685.77" y="402.8" width="5.4" height="5.4"/>
    </g>
    <g id="Box_copia" data-name="Box copia">
      <rect class="cls-2" x="688.98" y="401.05" width="5.4" height="5.4" transform="translate(-69.43 154.44) rotate(-12.14)"/>
    </g>
  </g>
  <g id="Engines">
    <rect class="cls-13" x="289.63" y="392.5" width="49.73" height="116.67"/>
    <rect class="cls-13" x="418.85" y="384.73" width="20.35" height="81.95"/>
    <polyline class="cls-12" points="352.41 530.36 352.41 514.78 372.68 514.78 372.68 530.36 368.33 534.72 362.55 534.72"/>
    <line class="cls-6" x1="183.58" y1="569.65" x2="170.95" y2="569.65"/>
    <line class="cls-6" x1="183.27" y1="528.52" x2="183.27" y2="570.69"/>
    <line class="cls-6" x1="183.27" y1="509.83" x2="183.27" y2="528.52"/>
    <line class="cls-6" x1="198.72" y1="528.53" x2="198.72" y2="584.58"/>
    <line class="cls-23" x1="184.34" y1="511.8" x2="184.34" y2="512.49"/>
    <path class="cls-20" d="m212.44,527.59v32.33c0,1.4,1.04,2.54,2.33,2.54h20.42c1.28,0,2.33-1.14,2.33-2.54v-32.33c0-1.4-1.04-2.54-2.33-2.54h-20.42c-1.28,0-2.33,1.14-2.33,2.54h0Z"/>
    <rect class="cls-20" x="352.81" y="516.3" width="4.82" height="4.82" rx="2.41" ry="2.41"/>
    <rect class="cls-20" x="355.81" y="521.3" width="4.82" height="4.82" rx="2.41" ry="2.41"/>
    <rect class="cls-20" x="362.81" y="522.3" width="4.82" height="4.82" rx="2.41" ry="2.41"/>
    <rect class="cls-20" x="364.81" y="516.3" width="4.82" height="4.82" rx="2.41" ry="2.41"/>
    <rect class="cls-20" x="361.81" y="527.3" width="4.82" height="4.82" rx="2.41" ry="2.41"/>
    <rect class="cls-20" x="299.81" y="568.3" width="4.82" height="4.82" rx="2.41" ry="2.41"/>
    <rect class="cls-20" x="273.81" y="519.3" width="4.82" height="4.82" rx="2.41" ry="2.41"/>
    <rect class="cls-20" x="276.81" y="327.7" width="7.41" height="7.41" rx="3.71" ry="3.71"/>
    <rect class="cls-20" x="238.81" y="320.7" width="7.41" height="7.41" rx="3.71" ry="3.71"/>
    <rect class="cls-20" x="206.81" y="525.3" width="4.82" height="4.82" rx="2.41" ry="2.41"/>
    <rect class="cls-20" x="206.81" y="530.3" width="4.82" height="4.82" rx="2.41" ry="2.41"/>
    <rect class="cls-20" x="305.81" y="570.3" width="4.82" height="4.82" rx="2.41" ry="2.41"/>
    <rect class="cls-20" x="300.81" y="574.3" width="4.82" height="4.82" rx="2.41" ry="2.41"/>
    <path class="cls-20" d="m212.44,337.59v32.33c0,1.4,1.04,2.54,2.33,2.54h20.42c1.28,0,2.33-1.14,2.33-2.54v-32.33c0-1.4-1.04-2.54-2.33-2.54h-20.42c-1.28,0-2.33,1.14-2.33,2.54h0Z"/>
    <path class="cls-20" d="m213.44,337.59v32.33c0,1.4,1.04,2.54,2.33,2.54h20.42c1.28,0,2.33-1.14,2.33-2.54v-32.33c0-1.4-1.04-2.54-2.33-2.54h-20.42c-1.28,0-2.33,1.14-2.33,2.54h0Z"/>
    <path class="cls-20" d="m253.44,527.59v32.33c0,1.4,1.04,2.54,2.33,2.54h20.42c1.28,0,2.33-1.14,2.33-2.54v-32.33c0-1.4-1.04-2.54-2.33-2.54h-20.42c-1.28,0-2.33,1.14-2.33,2.54h0Z"/>
    <path class="cls-20" d="m253.44,337.59v32.33c0,1.4,1.04,2.54,2.33,2.54h20.42c1.28,0,2.33-1.14,2.33-2.54v-32.33c0-1.4-1.04-2.54-2.33-2.54h-20.42c-1.28,0-2.33,1.14-2.33,2.54h0Z"/>
    <path class="cls-20" d="m294.44,527.59v32.33c0,1.4,1.04,2.54,2.33,2.54h20.42c1.28,0,2.33-1.14,2.33-2.54v-32.33c0-1.4-1.04-2.54-2.33-2.54h-20.42c-1.28,0-2.33,1.14-2.33,2.54h0Z"/>
    <path class="cls-20" d="m294.44,337.59v32.33c0,1.4,1.04,2.54,2.33,2.54h20.42c1.28,0,2.33-1.14,2.33-2.54v-32.33c0-1.4-1.04-2.54-2.33-2.54h-20.42c-1.28,0-2.33,1.14-2.33,2.54h0Z"/>
    <rect class="cls-18" x="222.56" y="471.88" width="59.42" height="32.48"/>
    <rect class="cls-18" x="221.82" y="397.47" width="59.42" height="32.48"/>
    <line class="cls-23" x1="144.68" y1="478.34" x2="184.05" y2="512.27"/>
    <polyline class="cls-23" points="184.34 440.29 184.34 389.51 341.51 389.51 341.51 512.49 184.34 512.49 184.34 509.16 184.34 470.29"/>
    <path class="cls-20" d="m277.86,460.38h-26.84c-1.16,0-2.11.39-2.11.86v7.56c0,.48.94.86,2.11.86h26.84c1.16,0,2.11-.39,2.11-.86v-7.56c0-.48-.94-.86-2.11-.86h0Z"/>
    <path class="cls-20" d="m355.41,362h-5.2c-.23,0-.41.25-.41.55v4.86c0,.31.18.55.41.55h5.2c.23,0,.41-.25.41-.55v-4.86c0-.31-.18-.55-.41-.55h0Z"/>
    <path class="cls-20" d="m368.39,358.08h-3.47c-.15,0-.27.16-.27.36v3.19c0,.2.12.36.27.36h3.47c.15,0,.27-.16.27-.36v-3.19c0-.2-.12-.36-.27-.36h0Z"/>
    <path class="cls-20" d="m373.92,358.08h-3.47c-.15,0-.27.16-.27.36v3.19c0,.2.12.36.27.36h3.47c.15,0,.27-.16.27-.36v-3.19c0-.2-.12-.36-.27-.36h0Z"/>
    <path class="cls-20" d="m362.83,361.83h-5.2c-.23,0-.41.25-.41.55v4.86c0,.31.18.55.41.55h5.2c.23,0,.41-.25.41-.55v-4.86c0-.31-.18-.55-.41-.55h0Z"/>
    <path class="cls-20" d="m360.23,381.75h-5.2c-.23,0-.41.25-.41.55v4.86c0,.31.18.55.41.55h5.2c.23,0,.41-.25.41-.55v-4.86c0-.31-.18-.55-.41-.55h0Z"/>
    <path class="cls-20" d="m421.8,350.82h-5.2c-.23,0-.41.73-.41,1.62v14.26c0,.9.18,1.62.41,1.62h5.2c.23,0,.41-.73.41-1.62v-14.26c0-.9-.18-1.62-.41-1.62h0Z"/>
    <rect class="cls-2" x="418.13" y="352.97" width="5.4" height="5.4" transform="translate(-84.89 136.93) rotate(-16.81)"/>
    <rect class="cls-2" x="418.31" y="361.35" width="5.4" height="5.4" transform="translate(301.79 -179.61) rotate(36.78)"/>
    <line class="cls-23" x1="400.27" y1="412.23" x2="393.06" y2="412.23"/>
    <line class="cls-23" x1="416.95" y1="412.23" x2="411.46" y2="412.23"/>
    <polyline class="cls-23" points="392.7 493.41 392.7 412.23 392.7 404.43 418.33 382.58 477.77 382.58 477.77 425.7 502.55 425.7"/>
    <rect class="cls-8" x="416.35" y="368.8" width="5.51" height="12.07"/>
  </g>
  <g id="Garage">
    <line class="cls-23" x1="346.78" y1="316.04" x2="173.22" y2="316.04"/>
  </g>
  <g id="Metal_doors" data-name="Metal doors">
    <rect class="cls-16" x="711.6" y="379.21" width="13.67" height="3.04"/>
    <rect class="cls-16" x="711.11" y="375.44" width="13.7" height=".63" transform="translate(-90.84 425.76) rotate(-31.16)"/>
    <rect class="cls-16" x="683.61" y="346.86" width="3.04" height="13.67"/>
    <rect class="cls-16" x="673.31" y="353.86" width="13.7" height=".63" transform="translate(729.07 1119.46) rotate(-121.16)"/>
    <rect class="cls-16" x="554.62" y="490.12" width="13.67" height="3.04"/>
    <rect class="cls-16" x="554.12" y="486.35" width="13.7" height=".63" transform="translate(-170.89 360.53) rotate(-31.16)"/>
    <rect class="cls-16" x="515.12" y="586.13" width="13.67" height="3.04"/>
    <rect class="cls-16" x="515.58" y="592.3" width="13.7" height=".63" transform="translate(1276.14 829.36) rotate(148.84)"/>
  </g>
  <g id="Doors">
    <g id="Door">
      <rect class="cls-30" x="548.65" y="469.17" width="3.04" height="13.67"/>
      <rect class="cls-17" x="538.35" y="476.17" width="13.7" height=".63" transform="translate(419.6 1189.58) rotate(-121.16)"/>
    </g>
    <g id="Door_copia" data-name="Door copia">
      <rect class="cls-30" x="391.07" y="417.85" width="3.04" height="13.67"/>
      <rect class="cls-17" x="380.77" y="424.85" width="13.7" height=".63" transform="translate(224.4 976.87) rotate(-121.16)"/>
    </g>
  </g>
  <g id="Outline">
    <path class="cls-23" d="m2,581.51v-215.68c0-5.91,4.79-10.71,10.71-10.71h7.83c5.36,0,9.71,4.35,9.71,9.71v6.29c0,1.73,1.45,3.11,3.17,3.03l8.21-.38c.79-.04,1.57-.24,2.28-.6l47.06-23.82c.29-.15.53-.37.7-.65l2.02-1.98c3.54-3.49,6.25-7.73,7.92-12.42l1.81-5.08,7.25-19.94c1.01-2.79,1.66-5.7,1.91-8.66L135.66,31.17l-1.6-17.84c-.31-3.48,2.1-6.62,5.54-7.21l22.09-3.84c2.14-.37,4.33-.35,6.46.06l33.52,6.43c.61.12,1.22.19,1.84.23l85.3,5.18c1.38.08,2.76-.01,4.11-.29l44.74-9.09c2.43-.49,4.92-.65,7.39-.46l29.96,2.3c2.06.16,4.09.55,6.06,1.17l28.35,8.92,39.43,14.11c1.87.67,3.87.85,5.83.53l32.99-5.44c.9-.15,1.83-.18,2.74-.08l39,4.11c1.42.15,2.8.61,4.02,1.36l29.12,17.71c1.56.95,2.83,2.31,3.66,3.93l11.94,23.27c1.4,2.72,3.93,4.68,6.92,5.33l10.38,2.28c3.71.81,7.24-1.96,7.33-5.75l.5-20.34c.06-2.59,1.42-4.97,3.62-6.33l12.38-7.71c2.1-1.31,4.53-2.01,7.01-2.02l30.64-.16c2.33-.01,4.6.8,6.39,2.3l12.7,10.61c.74.62,1.43,1.31,2.04,2.05l39.76,48.11c1.04,1.26,2.2,2.41,3.47,3.43l18.26,14.75c1.72,1.39,3.87,2.15,6.09,2.15h15.67c2.14,0,3.88,1.74,3.88,3.88v119.12c0,5.29,4.29,9.59,9.59,9.59h21.44c6.06,0,10.98-4.91,10.98-10.98v-35.41c0-2.02-.53-4-1.55-5.74l-3.92-6.74c-.82-1.41-1.26-3.02-1.26-4.66v-16.06c0-1.89.75-3.71,2.09-5.05l11.34-11.34c.98-.98,1.77-2.15,2.3-3.44l46.33-111.64c.88-2.13,2.92-3.55,5.22-3.64l34.1-1.35c1.7-.07,3.34.58,4.53,1.8l13.11,13.34c1.4,1.42,2.34,3.22,2.73,5.17l11.46,58.03c.62,3.15,4.63,4.16,6.67,1.67l3.94-4.8c1.03-1.26,2.58-1.98,4.21-1.96l28.62.36c2.12.03,3.8-1.76,3.66-3.87l-.95-13.74c-.06-.91-.24-1.8-.53-2.66l-3.47-10.3c-.67-1.98-.25-4.16,1.09-5.75l12.73-15.1c1.06-1.26,2.51-2.14,4.12-2.49l33.9-7.48c1.4-.31,2.82-.54,4.24-.68l50.67-5.07c.89-.09,1.79-.14,2.68-.16l55.66-1.23c1.8-.04,3.58-.31,5.3-.82l27.18-7.92c1.89-.55,3.85-.84,5.82-.86l39.31-.39c1.08-.01,2.16.05,3.24.17l28.93,3.35c2.31.27,4.47,1.27,6.16,2.86l25.63,24.04c1.65,1.54,3.58,2.75,5.69,3.56l22.08,8.45c2.24.86,4.65,1.2,7.05.99l22.4-1.96c2.7-.24,5.3-1.14,7.57-2.62l6.21-4.07c2-1.31,4.34-2.01,6.73-2.01h3.98c2.64,0,5.13,1.27,6.67,3.42l3.38,4.69c.87,1.21,2.03,2.17,3.38,2.81l11.07,5.21c1.18.56,2.19,1.42,2.92,2.5l9.09,13.47c.88,1.3,1.35,2.84,1.35,4.41v31.89c0,2.73-.79,5.41-2.26,7.71l-11.77,18.31c-1.16,1.8-1.77,3.89-1.77,6.03v9.06c0,2.23.84,4.38,2.35,6.01l5.62,6.07c1.89,2.04,3.37,4.42,4.37,7.02l6.34,16.43c1,2.59,1.38,5.37,1.11,8.13l-3.54,36.19-6.32,43.98c-.47,3.25-.45,6.55.04,9.79l4.08,26.68c.47,3.08,2.19,5.83,4.75,7.6h0c2.13,1.48,4.98,1.36,6.99-.28l5.63-4.59c.36-.29.69-.62.99-.98l10.07-12.28c1.8-2.2,4.5-3.47,7.34-3.47h3.72c2.71,0,5.21,1.43,6.58,3.77l14.9,25.37c1.25,2.13,1.91,4.56,1.91,7.03v67.01c0,3.37-2.73,6.1-6.1,6.1h-19.41c-2.45,0-4.44,1.99-4.44,4.44v15.46c0,1.9.6,3.76,1.72,5.3l5.13,7.06c.44.61.82,1.25,1.14,1.93l7.93,16.98c1.05,2.26,1.6,4.72,1.6,7.21v80.83c0,2.83-.67,5.62-1.96,8.14l-14.63,28.67c-.75,1.47-1.18,3.08-1.25,4.72l-3.04,63.56c-.1,2.2.61,4.35,2,6.05l5.67,6.9c1.85,2.25,2.66,5.17,2.23,8.05l-3.21,21.79c-.48,3.28-3.02,5.87-6.29,6.42l-21.61,3.62c-2.5.42-4.33,2.58-4.33,5.11v179.3c0,1.79-1.45,3.24-3.24,3.24h-192.34c-1.58,0-2.85,1.28-2.85,2.85v23.21c0,1.44-1.17,2.62-2.62,2.62h-240.75c-1.27,0-2.29,1.03-2.29,2.29v7.98c0,1.33-1.08,2.41-2.41,2.41h-209.88c-1.51,0-2.73,1.22-2.73,2.73v28.93c0,3.64-2.95,6.59-6.59,6.59h-44.24c-2.21,0-4,1.79-4,4v17.18c0,1.66-1.35,3.01-3.01,3.01h-30.95c-2.04,0-3.7-1.65-3.7-3.7v-18.92c0-1.2-.97-2.16-2.16-2.16h-23.2c-1.29,0-2.34-1.05-2.34-2.34v-22.69c0-.83-.67-1.51-1.51-1.51h-33.47c-.59,0-1.16-.23-1.59-.64l-21.37-20.33c-1.25-1.19-1.96-2.84-1.96-4.57v-176.32c0-1.24,1-2.24,2.24-2.24h29.39c1.5,0,2.71-1.21,2.71-2.71v-114.84c0-.65-.53-1.18-1.18-1.18h-62.04c-.26,0-.51-.02-.77-.06l-23.26-3.6c-.62-.1-1.19-.36-1.67-.77l-26.01-22.3c-1.23-1.06-1.95-2.6-1.95-4.23v-124.72c0-.83-.67-1.5-1.5-1.5h-86.6c-.97,0-1.76.79-1.76,1.76v49.87c0,1.19-.64,2.3-1.68,2.89l-49.69,28.22c-.67.38-1.42.58-2.19.58h-23.71c-1.35,0-2.44,1.09-2.44,2.44v5.45c0,1.78-1.45,3.23-3.23,3.23H6.59c-2.53,0-4.59-2.05-4.59-4.59Z"/>
  </g>
</svg>