<?xml version="1.0" encoding="UTF-8"?>
<svg xmlns="http://www.w3.org/2000/svg" xmlns:xlink="http://www.w3.org/1999/xlink" viewBox="0 0 2560 666.25">
  <defs>
    <style>
      .cls-1, .cls-2, .cls-3, .cls-4, .cls-5, .cls-6, .cls-7, .cls-8, .cls-9, .cls-10, .cls-11, .cls-12, .cls-13, .cls-14, .cls-15, .cls-16, .cls-17, .cls-18, .cls-19, .cls-20, .cls-21, .cls-22, .cls-23, .cls-24, .cls-25 {
        stroke-miterlimit: 10;
      }

      .cls-1, .cls-3, .cls-4, .cls-5, .cls-7, .cls-8, .cls-9, .cls-26, .cls-11, .cls-12, .cls-13, .cls-14, .cls-15, .cls-16, .cls-27, .cls-17, .cls-18, .cls-19, .cls-20, .cls-21, .cls-22, .cls-23, .cls-24, .cls-25 {
        stroke: #e0e0e0;
      }

      .cls-1, .cls-28, .cls-13, .cls-20 {
        fill: #e0e0e0;
      }

      .cls-1, .cls-19 {
        stroke-width: 5px;
      }

      .cls-2, .cls-3, .cls-5, .cls-9, .cls-10, .cls-26, .cls-11, .cls-12, .cls-14, .cls-15, .cls-16, .cls-29, .cls-27, .cls-30, .cls-17, .cls-18, .cls-22, .cls-23, .cls-24 {
        fill: none;
      }

      .cls-2, .cls-3, .cls-6 {
        stroke-width: 12px;
      }

      .cls-2, .cls-6 {
        stroke: #facd45;
      }

      .cls-4, .cls-7, .cls-8, .cls-25 {
        stroke-width: 4px;
      }

      .cls-4, .cls-7, .cls-31 {
        opacity: .3;
      }

      .cls-4, .cls-25 {
        fill: url(#Regla_escocesa_blanca);
      }

      .cls-5 {
        stroke-dasharray: 0 0 10 4.99;
      }

      .cls-5, .cls-9, .cls-11, .cls-12, .cls-14, .cls-15, .cls-16, .cls-17, .cls-21, .cls-23, .cls-24 {
        stroke-width: 8px;
      }

      .cls-6 {
        fill: #facd45;
      }

      .cls-7, .cls-8 {
        fill: url(#_6_lpp_10_);
      }

      .cls-9 {
        stroke-dasharray: 0 0 10.58 5.28;
      }

      .cls-10 {
        stroke: #e30613;
      }

      .cls-10, .cls-18 {
        stroke-width: 18px;
      }

      .cls-26, .cls-29 {
        stroke-width: .65px;
      }

      .cls-11 {
        stroke-dasharray: 0 0 10 4.99;
      }

      .cls-12 {
        stroke-dasharray: 0 0 0 0 .01 0 10.58 5.28;
      }

      .cls-14 {
        stroke-dasharray: 0 0 9.43 4.71;
      }

      .cls-15 {
        stroke-dasharray: 0 0 10.01 4.99;
      }

      .cls-16 {
        stroke-dasharray: 0 0 0 0 .01 0 10.01 4.99;
      }

      .cls-29 {
        stroke: #1d1d1b;
      }

      .cls-27 {
        stroke-width: 1.2px;
      }

      .cls-17 {
        stroke-dasharray: 0 0 0 0 .01 0 10 4.99;
      }

      .cls-19 {
        fill: #1d1d1b;
      }

      .cls-20 {
        stroke-width: 10px;
      }

      .cls-21 {
        fill: #afafaf;
      }

      .cls-23 {
        stroke-dasharray: 0 0 0 0 0 0 9.43 4.71;
      }

      .cls-24 {
        stroke-dasharray: 0 0 0 0 .01 0 10 4.99;
      }
    </style>
    <pattern id="_6_lpp_10_" data-name="6 lpp 10%" x="0" y="0" width="72" height="72" patternTransform="translate(0 -311.87)" patternUnits="userSpaceOnUse" viewBox="0 0 72 72">
      <g>
        <rect class="cls-30" width="72" height="72"/>
        <g>
          <line class="cls-27" x1="71.75" y1="6" x2="144.25" y2="6"/>
          <line class="cls-27" x1="71.75" y1="14" x2="144.25" y2="14"/>
          <line class="cls-27" x1="71.75" y1="22" x2="144.25" y2="22"/>
          <line class="cls-27" x1="71.75" y1="30" x2="144.25" y2="30"/>
          <line class="cls-27" x1="71.75" y1="38" x2="144.25" y2="38"/>
          <line class="cls-27" x1="71.75" y1="46" x2="144.25" y2="46"/>
          <line class="cls-27" x1="71.75" y1="54" x2="144.25" y2="54"/>
          <line class="cls-27" x1="71.75" y1="62" x2="144.25" y2="62"/>
          <line class="cls-27" x1="71.75" y1="68" x2="144.25" y2="68"/>
        </g>
        <g>
          <line class="cls-27" x1="-.25" y1="6" x2="72.25" y2="6"/>
          <line class="cls-27" x1="-.25" y1="14" x2="72.25" y2="14"/>
          <line class="cls-27" x1="-.25" y1="22" x2="72.25" y2="22"/>
          <line class="cls-27" x1="-.25" y1="30" x2="72.25" y2="30"/>
          <line class="cls-27" x1="-.25" y1="38" x2="72.25" y2="38"/>
          <line class="cls-27" x1="-.25" y1="46" x2="72.25" y2="46"/>
          <line class="cls-27" x1="-.25" y1="54" x2="72.25" y2="54"/>
          <line class="cls-27" x1="-.25" y1="62" x2="72.25" y2="62"/>
          <line class="cls-27" x1="-.25" y1="68" x2="72.25" y2="68"/>
        </g>
        <g>
          <line class="cls-27" x1="-72.25" y1="6" x2=".25" y2="6"/>
          <line class="cls-27" x1="-72.25" y1="14" x2=".25" y2="14"/>
          <line class="cls-27" x1="-72.25" y1="22" x2=".25" y2="22"/>
          <line class="cls-27" x1="-72.25" y1="30" x2=".25" y2="30"/>
          <line class="cls-27" x1="-72.25" y1="38" x2=".25" y2="38"/>
          <line class="cls-27" x1="-72.25" y1="46" x2=".25" y2="46"/>
          <line class="cls-27" x1="-72.25" y1="54" x2=".25" y2="54"/>
          <line class="cls-27" x1="-72.25" y1="62" x2=".25" y2="62"/>
          <line class="cls-27" x1="-72.25" y1="68" x2=".25" y2="68"/>
        </g>
      </g>
    </pattern>
    <pattern id="Regla_escocesa_blanca" data-name="Regla escocesa blanca" x="0" y="0" width="73.12" height="72" patternTransform="translate(0 -311.87)" patternUnits="userSpaceOnUse" viewBox="0 0 73.12 72">
      <g>
        <rect class="cls-30" width="73.12" height="72"/>
        <line class="cls-29" x1="67.58" y1="72" x2="67.58" y2="0"/>
        <line class="cls-26" x1="7.54" y1="72" x2="7.54" y2="0"/>
        <line class="cls-26" x1="15.54" y1="72" x2="15.54" y2="0"/>
        <line class="cls-26" x1="23.54" y1="72" x2="23.54" y2="0"/>
        <line class="cls-26" x1="31.54" y1="72" x2="31.54" y2="0"/>
        <line class="cls-26" x1="39.54" y1="72" x2="39.54" y2="0"/>
        <line class="cls-26" x1="47.54" y1="72" x2="47.54" y2="0"/>
        <line class="cls-26" x1="55.54" y1="72" x2="55.54" y2="0"/>
        <line class="cls-26" x1="63.54" y1="72" x2="63.54" y2="0"/>
        <line class="cls-26" x1="71.54" y1="72" x2="71.54" y2="0"/>
      </g>
    </pattern>
  </defs>
  <g id="Capa_3" data-name="Capa 3">
    <polygon class="cls-13" points="87.33 417.95 19.51 412.22 19.51 263.71 87.63 251.57 87.33 417.95"/>
    <line class="cls-10" x1="843.27" y1="370.89" x2="843.27" y2="301.62"/>
    <path class="cls-18" d="m843.27,301.62v-36.76c0-4.28,3.47-7.75,7.75-7.75h134.42c4.28,0,7.75,3.47,7.75,7.75v134.42c0,4.28-3.47,7.75-7.75,7.75h-134.42c-4.28,0-7.75-3.47-7.75-7.75v-28.4"/>
    <rect class="cls-13" x="344.61" y="295.08" width="31.9" height="82.54" rx="2.05" ry="2.05"/>
    <rect class="cls-13" x="950.32" y="308.83" width="20.05" height="51.87" rx="1.29" ry="1.29"/>
    <g>
      <line class="cls-14" x1="267.93" y1="305.03" x2="278.71" y2="305.03"/>
      <line class="cls-23" x1="282.06" y1="305.03" x2="350.44" y2="305.03"/>
    </g>
    <g>
      <line class="cls-14" x1="267.93" y1="367.03" x2="278.71" y2="367.03"/>
      <line class="cls-23" x1="282.06" y1="367.03" x2="350.44" y2="367.03"/>
    </g>
    <g>
      <line class="cls-5" x1="529.93" y1="407.03" x2="541.43" y2="407.03"/>
      <line class="cls-17" x1="544.92" y1="407.03" x2="647.47" y2="407.03"/>
    </g>
    <g>
      <line class="cls-5" x1="529.93" y1="265.03" x2="541.43" y2="265.03"/>
      <line class="cls-17" x1="544.92" y1="265.03" x2="647.47" y2="265.03"/>
    </g>
    <g>
      <line class="cls-11" x1="1489.93" y1="267.03" x2="1501.42" y2="267.03"/>
      <line class="cls-24" x1="1504.92" y1="267.03" x2="1652.45" y2="267.03"/>
    </g>
    <g>
      <line class="cls-9" x1="1646.76" y1="292.2" x2="1646.76" y2="304.42"/>
      <line class="cls-12" x1="1646.76" y1="308.06" x2="1646.76" y2="384.76"/>
    </g>
    <g>
      <line class="cls-15" x1="2148.76" y1="225.23" x2="2148.76" y2="236.73"/>
      <line class="cls-16" x1="2148.76" y1="240.23" x2="2148.76" y2="462.87"/>
    </g>
    <g>
      <line class="cls-11" x1="1489.93" y1="405.42" x2="1501.42" y2="405.42"/>
      <line class="cls-24" x1="1504.92" y1="405.42" x2="1652.45" y2="405.42"/>
    </g>
    <g>
      <line class="cls-14" x1="205.93" y1="421.03" x2="216.71" y2="421.03"/>
      <line class="cls-23" x1="220.06" y1="421.03" x2="288.44" y2="421.03"/>
    </g>
    <g>
      <line class="cls-14" x1="205.93" y1="249.03" x2="216.71" y2="249.03"/>
      <line class="cls-23" x1="220.06" y1="249.03" x2="288.44" y2="249.03"/>
    </g>
    <polygon class="cls-20" points="393.98 195.5 704.61 195.5 704.61 223.46 462.54 223.46 462.54 249.89 407 249.89 407 217.71 393.98 217.71 393.98 195.5"/>
    <polygon class="cls-20" points="393.98 473.91 704.9 473.91 704.9 445.93 462.6 445.93 462.6 419.47 407.01 419.47 407.01 451.68 393.98 451.68 393.98 473.91"/>
    <rect class="cls-13" x="701.29" y="226.69" width="7.76" height="22.61" rx="2.16" ry="2.16"/>
    <path class="cls-13" d="m459.29,255.64v24.98c0,1.63.97,2.95,2.16,2.95h3.44c1.19,0,2.16-1.32,2.16-2.95v-24.98c0-1.63-.97-2.95-2.16-2.95h-3.44c-1.19,0-2.16,1.32-2.16,2.95Z"/>
    <path class="cls-13" d="m459.29,167.64v24.98c0,1.63.97,2.95,2.16,2.95h3.44c1.19,0,2.16-1.32,2.16-2.95v-24.98c0-1.63-.97-2.95-2.16-2.95h-3.44c-1.19,0-2.16,1.32-2.16,2.95Z"/>
    <path class="cls-13" d="m459.29,475.64v24.98c0,1.63.97,2.95,2.16,2.95h3.44c1.19,0,2.16-1.32,2.16-2.95v-24.98c0-1.63-.97-2.95-2.16-2.95h-3.44c-1.19,0-2.16,1.32-2.16,2.95Z"/>
    <path class="cls-13" d="m625.29,475.64v24.98c0,1.63.97,2.95,2.16,2.95h3.44c1.19,0,2.16-1.32,2.16-2.95v-24.98c0-1.63-.97-2.95-2.16-2.95h-3.44c-1.19,0-2.16,1.32-2.16,2.95Z"/>
    <path class="cls-13" d="m625.29,167.64v24.98c0,1.63.97,2.95,2.16,2.95h3.44c1.19,0,2.16-1.32,2.16-2.95v-24.98c0-1.63-.97-2.95-2.16-2.95h-3.44c-1.19,0-2.16,1.32-2.16,2.95Z"/>
    <path class="cls-13" d="m459.29,44.4v85.56c0,5.58.97,10.1,2.16,10.1h3.44c1.19,0,2.16-4.52,2.16-10.1V44.4c0-5.58-.97-10.1-2.16-10.1h-3.44c-1.19,0-2.16,4.52-2.16,10.1Z"/>
    <path class="cls-13" d="m459.29,558.11v71.51c0,4.66.97,8.44,2.16,8.44h3.44c1.19,0,2.16-3.78,2.16-8.44v-71.51c0-4.66-.97-8.44-2.16-8.44h-3.44c-1.19,0-2.16,3.78-2.16,8.44Z"/>
    <path class="cls-13" d="m625.29,558.11v71.51c0,4.66.97,8.44,2.16,8.44h3.44c1.19,0,2.16-3.78,2.16-8.44v-71.51c0-4.66-.97-8.44-2.16-8.44h-3.44c-1.19,0-2.16,3.78-2.16,8.44Z"/>
    <path class="cls-13" d="m625.29,40.11v71.51c0,4.66.97,8.44,2.16,8.44h3.44c1.19,0,2.16-3.78,2.16-8.44V40.11c0-4.66-.97-8.44-2.16-8.44h-3.44c-1.19,0-2.16,3.78-2.16,8.44Z"/>
    <path class="cls-13" d="m459.29,393.64v24.98c0,1.63.97,2.95,2.16,2.95h3.44c1.19,0,2.16-1.32,2.16-2.95v-24.98c0-1.63-.97-2.95-2.16-2.95h-3.44c-1.19,0-2.16,1.32-2.16,2.95Z"/>
    <rect class="cls-13" x="701.29" y="422.69" width="7.76" height="22.61" rx="2.16" ry="2.16"/>
    <path class="cls-13" d="m701.29,302.5v66.15c0,4.31.97,7.81,2.16,7.81h3.44c1.19,0,2.16-3.49,2.16-7.81v-66.15c0-4.31-.97-7.81-2.16-7.81h-3.44c-1.19,0-2.16,3.49-2.16,7.81Z"/>
    <path class="cls-13" d="m183.63,312.16v49.37c0,1.13.87,2.05,1.93,2.05h30.77c1.07,0,1.93-.92,1.93-2.05v-49.37c0-1.13-.87-2.05-1.93-2.05h-30.77c-1.07,0-1.93.92-1.93,2.05Z"/>
    <rect class="cls-13" x="260.9" y="298.01" width="14.05" height="14.05"/>
    <rect class="cls-13" x="260.9" y="360.01" width="14.05" height="14.05"/>
    <rect class="cls-20" x="513.39" y="126.06" width="65.17" height="65.17" rx="4.29" ry="4.29"/>
    <rect class="cls-20" x="513.39" y="478.06" width="65.17" height="65.17" rx="4.29" ry="4.29"/>
    <rect class="cls-8" x="1111.54" y="185.77" width="67.83" height="98.43" rx="1.18" ry="1.18"/>
    <path class="cls-25" d="m343.15,358.83v-44.86c0-.65-.53-1.18-1.18-1.18h-78.56c-.65,0-1.18.53-1.18,1.18v44.86c0,.65.53,1.18,1.18,1.18h78.56c.65,0,1.18-.53,1.18-1.18Z"/>
    <path class="cls-25" d="m216.71,418.29v-56.27c0-.65-.53-1.18-1.18-1.18h-28.86c-.65,0-1.18.53-1.18,1.18v56.27c0,.65.53,1.18,1.18,1.18h28.86c.65,0,1.18-.53,1.18-1.18Z"/>
    <path class="cls-25" d="m216.71,310.29v-56.27c0-.65-.53-1.18-1.18-1.18h-28.86c-.65,0-1.18.53-1.18,1.18v56.27c0,.65.53,1.18,1.18,1.18h28.86c.65,0,1.18-.53,1.18-1.18Z"/>
    <g>
      <line class="cls-22" x1="262.22" y1="336.84" x2="328.65" y2="336.84"/>
      <polygon class="cls-28" points="327.19 341.83 335.83 336.84 327.19 331.85 327.19 341.83"/>
    </g>
    <path class="cls-4" d="m1571.15,358.83v-44.86c0-.65-.53-1.18-1.18-1.18h-78.56c-.65,0-1.18.53-1.18,1.18v44.86c0,.65.53,1.18,1.18,1.18h78.56c.65,0,1.18-.53,1.18-1.18Z"/>
    <g class="cls-31">
      <g>
        <line class="cls-22" x1="1490.22" y1="336.84" x2="1556.65" y2="336.84"/>
        <polygon class="cls-28" points="1555.19 341.83 1563.83 336.84 1555.19 331.85 1555.19 341.83"/>
      </g>
    </g>
    <path class="cls-25" d="m2454.51,146.29v-55.73c0-.65-.53-1.18-1.18-1.18h-78.56c-.65,0-1.18.53-1.18,1.18v55.73c0,.65.53,1.18,1.18,1.18h78.56c.65,0,1.18-.53,1.18-1.18Z"/>
    <g>
      <line class="cls-22" x1="2451.93" y1="118.96" x2="2380.76" y2="118.96"/>
      <polygon class="cls-28" points="2382.22 113.98 2373.59 118.96 2382.22 123.95 2382.22 113.98"/>
    </g>
    <path class="cls-25" d="m2240.9,218.29v-55.73c0-.65-.53-1.18-1.18-1.18h-62.95c-.65,0-1.18.53-1.18,1.18v55.73c0,.65.53,1.18,1.18,1.18h62.95c.65,0,1.18-.53,1.18-1.18Z"/>
    <g>
      <line class="cls-22" x1="2238.82" y1="190.96" x2="2182.76" y2="190.96"/>
      <polygon class="cls-28" points="2184.22 185.98 2175.59 190.96 2184.22 195.95 2184.22 185.98"/>
    </g>
    <path class="cls-25" d="m2240.9,522.29v-55.73c0-.65-.53-1.18-1.18-1.18h-62.95c-.65,0-1.18.53-1.18,1.18v55.73c0,.65.53,1.18,1.18,1.18h62.95c.65,0,1.18-.53,1.18-1.18Z"/>
    <g>
      <line class="cls-22" x1="2238.82" y1="494.96" x2="2182.76" y2="494.96"/>
      <polygon class="cls-28" points="2184.22 489.98 2175.59 494.96 2184.22 499.95 2184.22 489.98"/>
    </g>
    <path class="cls-25" d="m1420.51,432.91v-32.73c0-.65-.53-1.18-1.18-1.18h-37.09c-.65,0-1.18.53-1.18,1.18v32.73c0,.65.53,1.18,1.18,1.18h37.09c.65,0,1.18-.53,1.18-1.18Z"/>
    <path class="cls-25" d="m1311.63,361.5v-57.52c0-.65-.53-1.18-1.18-1.18h-31.42c-.65,0-1.18.53-1.18,1.18v57.52c0,.65.53,1.18,1.18,1.18h31.42c.65,0,1.18-.53,1.18-1.18Z"/>
    <path class="cls-25" d="m1420.54,266.91v-32.73c0-.65-.53-1.18-1.18-1.18h-37.09c-.65,0-1.18.53-1.18,1.18v32.73c0,.65.53,1.18,1.18,1.18h37.09c.65,0,1.18-.53,1.18-1.18Z"/>
    <g>
      <line class="cls-22" x1="1419.54" y1="416.83" x2="1390.93" y2="416.83"/>
      <polygon class="cls-28" points="1392.39 411.84 1383.76 416.83 1392.39 421.81 1392.39 411.84"/>
    </g>
    <g>
      <line class="cls-22" x1="1420.02" y1="250.83" x2="1391.41" y2="250.83"/>
      <polygon class="cls-28" points="1392.87 245.84 1384.24 250.83 1392.87 255.81 1392.87 245.84"/>
    </g>
    <path class="cls-25" d="m1571.15,311.61v-35.43c0-.65-.53-1.18-1.18-1.18h-78.56c-.65,0-1.18.53-1.18,1.18v35.43c0,.65.53,1.18,1.18,1.18h78.56c.65,0,1.18-.53,1.18-1.18Z"/>
    <g>
      <line class="cls-22" x1="1570.1" y1="294.2" x2="1500.18" y2="294.2"/>
      <polygon class="cls-28" points="1501.64 289.21 1493.01 294.2 1501.64 299.18 1501.64 289.21"/>
    </g>
    <path class="cls-25" d="m1571.15,396.62v-35.43c0-.65-.53-1.18-1.18-1.18h-78.56c-.65,0-1.18.53-1.18,1.18v35.43c0,.65.53,1.18,1.18,1.18h78.56c.65,0,1.18-.53,1.18-1.18Z"/>
    <g>
      <line class="cls-22" x1="1570.17" y1="379.21" x2="1500.09" y2="379.21"/>
      <polygon class="cls-28" points="1501.55 374.22 1492.91 379.21 1501.55 384.19 1501.55 374.22"/>
    </g>
    <path class="cls-25" d="m1903.59,362.46v47.2c0,.65.53,1.18,1.18,1.18h46.66c.65,0,1.18-.53,1.18-1.18v-47.2c0-.65-.53-1.18-1.18-1.18h-46.66c-.65,0-1.18.53-1.18,1.18Z"/>
    <g>
      <line class="cls-22" x1="1905.15" y1="385.6" x2="1945.43" y2="385.6"/>
      <polygon class="cls-28" points="1943.97 390.58 1952.61 385.6 1943.97 380.61 1943.97 390.58"/>
    </g>
    <path class="cls-25" d="m1903.59,260.46v47.2c0,.65.53,1.18,1.18,1.18h46.66c.65,0,1.18-.53,1.18-1.18v-47.2c0-.65-.53-1.18-1.18-1.18h-46.66c-.65,0-1.18.53-1.18,1.18Z"/>
    <g>
      <line class="cls-22" x1="1905.15" y1="283.6" x2="1945.43" y2="283.6"/>
      <polygon class="cls-28" points="1943.97 288.58 1952.61 283.6 1943.97 278.61 1943.97 288.58"/>
    </g>
    <path class="cls-25" d="m2454.51,592.29v-55.73c0-.65-.53-1.18-1.18-1.18h-78.56c-.65,0-1.18.53-1.18,1.18v55.73c0,.65.53,1.18,1.18,1.18h78.56c.65,0,1.18-.53,1.18-1.18Z"/>
    <g>
      <line class="cls-22" x1="2451.93" y1="564.96" x2="2380.76" y2="564.96"/>
      <polygon class="cls-28" points="2382.22 559.98 2373.59 564.96 2382.22 569.95 2382.22 559.98"/>
    </g>
    <g>
      <line class="cls-22" x1="184.22" y1="390.84" x2="207.48" y2="390.84"/>
      <polygon class="cls-28" points="206.02 395.83 214.66 390.84 206.02 385.85 206.02 395.83"/>
    </g>
    <g>
      <line class="cls-22" x1="184.22" y1="282.84" x2="207.48" y2="282.84"/>
      <polygon class="cls-28" points="206.02 287.83 214.66 282.84 206.02 277.85 206.02 287.83"/>
    </g>
    <g>
      <line class="cls-22" x1="1146.55" y1="285.17" x2="1146.55" y2="195.65"/>
      <polygon class="cls-28" points="1151.54 197.11 1146.55 188.47 1141.56 197.11 1151.54 197.11"/>
    </g>
    <rect class="cls-8" x="1977.89" y="517.03" width="67.83" height="34.04" rx="1.18" ry="1.18"/>
    <g>
      <line class="cls-22" x1="2012.9" y1="551.41" x2="2012.9" y2="525.15"/>
      <polygon class="cls-28" points="2017.89 526.61 2012.9 517.97 2007.92 526.61 2017.89 526.61"/>
    </g>
    <rect class="cls-8" x="1979.89" y="117.03" width="67.83" height="34.04" rx="1.18" ry="1.18"/>
    <g>
      <line class="cls-22" x1="2014.9" y1="117.97" x2="2014.9" y2="142.25"/>
      <polygon class="cls-28" points="2009.92 140.79 2014.9 149.42 2019.89 140.79 2009.92 140.79"/>
    </g>
    <rect class="cls-8" x="2079.89" y="117.03" width="67.83" height="34.04" rx="1.18" ry="1.18"/>
    <g>
      <line class="cls-22" x1="2114.9" y1="117.97" x2="2114.9" y2="142.25"/>
      <polygon class="cls-28" points="2109.92 140.79 2114.9 149.42 2119.89 140.79 2109.92 140.79"/>
    </g>
    <rect class="cls-8" x="2073.89" y="517.03" width="67.83" height="34.04" rx="1.18" ry="1.18"/>
    <g>
      <line class="cls-22" x1="2108.9" y1="551.41" x2="2108.9" y2="525.15"/>
      <polygon class="cls-28" points="2113.89 526.61 2108.9 517.97 2103.92 526.61 2113.89 526.61"/>
    </g>
    <g>
      <line class="cls-22" x1="1310.25" y1="332.44" x2="1284.82" y2="332.44"/>
      <polygon class="cls-28" points="1286.27 327.45 1277.64 332.44 1286.27 337.43 1286.27 327.45"/>
    </g>
    <rect class="cls-7" x="2469.54" y="199.77" width="67.83" height="98.43" rx="1.18" ry="1.18"/>
    <g class="cls-31">
      <g>
        <line class="cls-22" x1="2504.55" y1="299.17" x2="2504.55" y2="209.65"/>
        <polygon class="cls-28" points="2509.54 211.11 2504.55 202.47 2499.56 211.11 2509.54 211.11"/>
      </g>
    </g>
    <rect class="cls-8" x="1111.43" y="384.15" width="67.83" height="98.43" rx="1.18" ry="1.18"/>
    <g>
      <line class="cls-22" x1="1146.44" y1="384.86" x2="1146.44" y2="474.38"/>
      <polygon class="cls-28" points="1141.45 472.92 1146.44 481.55 1151.43 472.92 1141.45 472.92"/>
    </g>
    <rect class="cls-7" x="2469.43" y="398.15" width="67.83" height="98.43" rx="1.18" ry="1.18"/>
    <g class="cls-31">
      <g>
        <line class="cls-22" x1="2504.44" y1="398.86" x2="2504.44" y2="488.38"/>
        <polygon class="cls-28" points="2499.45 486.92 2504.44 495.55 2509.43 486.92 2499.45 486.92"/>
      </g>
    </g>
    <rect class="cls-21" x="1994.85" y="314.35" width="43.07" height="43.07" transform="translate(100.1 -375.8) rotate(10.92)"/>
    <rect class="cls-21" x="1759.29" y="406.64" width="43.07" height="43.07"/>
    <rect class="cls-21" x="2217.41" y="417.45" width="67.62" height="43.07"/>
    <rect class="cls-21" x="1718.97" y="212.77" width="83.39" height="43.07"/>
    <rect class="cls-13" x="1102.27" y="184.45" width="10.34" height="115.2"/>
    <rect class="cls-13" x="1102.27" y="367.84" width="10.34" height="116.24"/>
    <rect class="cls-18" x="2220.71" y="268.72" width="131.12" height="131.12" rx="5.99" ry="5.99"/>
  </g>
  <g id="Capa_2" data-name="Capa 2">
    <line class="cls-3" x1="1183.88" y1="183.79" x2="1183.88" y2="484.58"/>
    <path class="cls-3" d="m1110.41,478.6h-283.17c-1.94,0-3.51,1.57-3.51,3.51v70.24c0,1.73-.43,3.44-1.26,4.96l-13.38,24.65c-1.26,2.32-3.69,3.76-6.33,3.76h-163.42c-1.94,0-3.51,1.57-3.51,3.51v42.15c0,1.94-1.57,3.51-3.51,3.51h-172.1c-1.94,0-3.51-1.57-3.51-3.51v-42.15c0-1.94-1.57-3.51-3.51-3.51h-160.92c-2.05,0-3.96-1.02-5.11-2.71l-18.88-27.94c-.81-1.2-1.24-2.61-1.24-4.05v-63.64c0-1.94-1.57-3.51-3.51-3.51h-46c-2.72,0-4.93-2.21-4.93-4.93v-52.15c0-1.94-1.57-3.51-3.51-3.51h-117.92c-1,0-1.99-.08-2.98-.23l-64.79-10.12c-4.98-.78-8.65-5.07-8.65-10.11v-134.3c0-2.1,1.43-3.94,3.47-4.45l64.95-16.24c1.99-.5,4.03-.75,6.08-.75h121.64c2.07,0,3.76-1.68,3.76-3.76v-49.66c0-3.48,2.82-6.29,6.29-6.29h46.98c1.94,0,3.51-1.57,3.51-3.51v-69.88c0-.62.17-1.23.48-1.77l15.77-27c.63-1.08,1.78-1.74,3.03-1.74h163.94c1.94,0,3.51-1.57,3.51-3.51v-42.15c0-1.94,1.57-3.51,3.51-3.51h171.51c1.94,0,3.51,1.57,3.51,3.51v46.54c0,1.94,1.57,3.51,3.51,3.51h161.48c1.15,0,2.22.56,2.88,1.5l18.52,26.57c.41.59.63,1.29.63,2.01v68.26c0,1.94,1.57,3.51,3.51,3.51h285.37"/>
    <line class="cls-6" x1="1273" y1="364.84" x2="1273" y2="299.13"/>
    <path class="cls-3" d="m1273,300.78v-84.15c0-4.1,3.33-7.43,7.44-7.43h250.43c4.11,0,7.44-3.32,7.44-7.43v-115.31c0-4.1,3.33-7.43,7.44-7.43h57.21"/>
    <path class="cls-3" d="m1605.16,601.52v-4c0-4.12-3.33-7.46-7.44-7.46h-56.92c-4.11,0-7.44-3.34-7.44-7.46v-116.78c0-4.12-3.33-7.46-7.44-7.46h-245.47c-4.11,0-7.44-3.34-7.44-7.46v-86.05"/>
    <path class="cls-3" d="m1692.72,601.3v47.26c0,6.46-3.33,11.7-7.44,11.7h-72.68c-4.11,0-7.44-5.24-7.44-11.7v-48.79"/>
    <path class="cls-3" d="m1609.16,83.05V30.72c0-7.15,3.33-12.95,7.44-12.95h72.68c4.11,0,7.44,5.8,7.44,12.95v54.02"/>
    <path class="cls-3" d="m1979.49,557.57c-4.11,0-7.44-3.34-7.44-7.46v-20.51c0-4.12-3.33-7.46-7.44-7.46h-11.84c-2.69,0-5.18-1.46-6.49-3.82l-46.52-83.36c-1.32-2.36-3.8-3.82-6.49-3.82h-75.76c-4.11,0-7.44,3.34-7.44,7.46v13.17c0,4.12-3.33,7.46-7.44,7.46h-28.02c-4.11,0-7.44,3.34-7.44,7.46v115.9c0,4.12-3.33,7.46-7.44,7.46h-59.54c-4.11,0-7.44,3.34-7.44,7.46v4.98"/>
    <path class="cls-2" d="m2046.04,557.57h-66.55"/>
    <path class="cls-3" d="m2075.81,558.45c-4.11,0-7.44-3.34-7.44-7.46v-21.39c0-4.12-3.33-7.46-7.44-7.46h0c-4.11,0-7.44,3.34-7.44,7.46v20.51c0,4.12-3.33,7.46-7.44,7.46"/>
    <path class="cls-2" d="m2140.6,558.45h-64.8"/>
    <path class="cls-3" d="m2369.58,611.28v9.07c0,4.12-3.33,7.46-7.44,7.46h-107.7c-4.11,0-7.44-3.34-7.44-7.46v-84.29c0-4.12-3.33-7.46-7.44-7.46h-84.06c-4.11,0-7.44,3.34-7.44,7.46v14.93c0,4.12-3.33,7.46-7.44,7.46"/>
    <path class="cls-3" d="m2544.71,508.8v80.9c0,4.27-3.33,7.72-7.44,7.72h-160.24c-4.11,0-7.44,3.46-7.44,7.72v9.69"/>
    <path class="cls-3" d="m2143.33,115.91c4.11,0,7.44,3.34,7.44,7.46v22.15c0,4.12,3.33,7.46,7.44,7.46h90.97c4.11,0,7.44-3.34,7.44-7.46V62.89c0-4.12,3.33-7.46,7.44-7.46h99.53c4.11,0,7.44,3.34,7.44,7.46v11.32c0,4.12,3.33,7.46,7.44,7.46h158.78c4.11,0,7.44,3.34,7.44,7.46v419.67"/>
    <path class="cls-2" d="m2079.6,115.91h63.73"/>
    <path class="cls-3" d="m2047.79,115.52c4.11,0,7.44,3.34,7.44,7.46v21.37c0,4.12,3.33,7.46,7.44,7.46h2.04c4.11,0,7.44-3.34,7.44-7.46v-20.98c0-4.12,3.33-7.46,7.44-7.46"/>
    <path class="cls-2" d="m1986.4,115.52h61.39"/>
    <path class="cls-3" d="m1764.72,107.52v94.88c0,4.12,3.33,7.46,7.44,7.46h30.65c4.11,0,7.44,3.34,7.44,7.46v19.71c0,4.12,3.33,7.46,7.44,7.46h76.2c2.66,0,5.13-1.43,6.45-3.74l48.83-85.19c1.33-2.32,3.79-3.74,6.45-3.74h15.88c4.11,0,7.44-3.34,7.44-7.46v-21.37c0-4.12,3.33-7.46,7.44-7.46"/>
    <path class="cls-3" d="m1700.51,78.99h56.76c4.11,0,7.44,3.34,7.44,7.46v19.07"/>
    <path class="cls-1" d="m1597.87,75.53h26.39c.25,0,.45.08.45.18v6.65c0,.1-.2.18-.45.18h-26.39c-.25,0-.45-.08-.45-.18v-6.65c0-.1.2-.18.45-.18Z"/>
    <path class="cls-1" d="m1536.99,163.11h23.32c.22,0,.4.08.4.19v7.02c0,.1-.18.19-.4.19h-23.32c-.22,0-.4-.08-.4-.19v-7.02c0-.1.18-.19.4-.19Z"/>
    <path class="cls-1" d="m1742.99,163.11h23.32c.22,0,.4.08.4.19v7.02c0,.1-.18.19-.4.19h-23.32c-.22,0-.4-.08-.4-.19v-7.02c0-.1.18-.19.4-.19Z"/>
    <path class="cls-1" d="m1606.1,163.11h88.01c.84,0,1.52.08,1.52.19v7.02c0,.1-.68.19-1.52.19h-88.01c-.84,0-1.52-.08-1.52-.19v-7.02c0-.1.68-.19,1.52-.19Z"/>
    <path class="cls-1" d="m2253.21,149.11h36.24c.35,0,.62.08.62.19v7.02c0,.1-.28.19-.62.19h-36.24c-.35,0-.62-.08-.62-.19v-7.02c0-.1.28-.19.62-.19Z"/>
    <path class="cls-1" d="m2347.21,149.11h36.24c.35,0,.62.08.62.19v7.02c0,.1-.28.19-.62.19h-36.24c-.35,0-.62-.08-.62-.19v-7.02c0-.1.28-.19.62-.19Z"/>
    <path class="cls-1" d="m2242.78,525.11h46.49c.44,0,.8.08.8.19v7.02c0,.1-.36.19-.8.19h-46.49c-.44,0-.8-.08-.8-.19v-7.02c0-.1.36-.19.8-.19Z"/>
    <path class="cls-1" d="m2347.21,525.29h36.24c.35,0,.62.08.62.18v6.84c0,.1-.28.18-.62.18h-36.24c-.35,0-.62-.08-.62-.18v-6.84c0-.1.28-.18.62-.18Z"/>
    <path class="cls-1" d="m1536.99,505.11h23.32c.22,0,.4.08.4.19v7.02c0,.1-.18.19-.4.19h-23.32c-.22,0-.4-.08-.4-.19v-7.02c0-.1.18-.19.4-.19Z"/>
    <path class="cls-1" d="m1742.99,505.11h23.32c.22,0,.4.08.4.19v7.02c0,.1-.18.19-.4.19h-23.32c-.22,0-.4-.08-.4-.19v-7.02c0-.1.18-.19.4-.19Z"/>
    <path class="cls-1" d="m1606.1,505.11h88.01c.84,0,1.52.08,1.52.19v7.02c0,.1-.68.19-1.52.19h-88.01c-.84,0-1.52-.08-1.52-.19v-7.02c0-.1.68-.19,1.52-.19Z"/>
    <path class="cls-1" d="m1813.93,231.95v62.11c0,.59-.08,1.07-.19,1.07h-7.02c-.1,0-.19-.48-.19-1.07v-62.11c0-.59.08-1.07.19-1.07h7.02c.1,0,.19.48.19,1.07Z"/>
    <path class="cls-1" d="m1813.93,373.95v62.11c0,.59-.08,1.07-.19,1.07h-7.02c-.1,0-.19-.48-.19-1.07v-62.11c0-.59.08-1.07.19-1.07h7.02c.1,0,.19.48.19,1.07Z"/>
    <path class="cls-19" d="m1640.83,276.4h8.75c.08,0,.15.11.15.25v9.24c0,.14-.07.25-.15.25h-8.75c-.08,0-.15-.11-.15-.25v-9.24c0-.14.07-.25.15-.25Z"/>
    <path class="cls-19" d="m1640.83,387.41h8.75c.08,0,.15.11.15.25v9.24c0,.14-.07.25-.15.25h-8.75c-.08,0-.15-.11-.15-.25v-9.24c0-.14.07-.25.15-.25Z"/>
    <path class="cls-1" d="m1678.22,75.11h23.32c.22,0,.4.08.4.19v7.02c0,.1-.18.19-.4.19h-23.32c-.22,0-.4-.08-.4-.19v-7.02c0-.1.18-.19.4-.19Z"/>
    <path class="cls-1" d="m1597.87,586.51h26.39c.25,0,.45.08.45.18v6.65c0,.1-.2.18-.45.18h-26.39c-.25,0-.45-.08-.45-.18v-6.65c0-.1.2-.18.45-.18Z"/>
    <path class="cls-1" d="m1678.21,586.51h22.88c.22,0,.39.08.39.18v6.62c0,.1-.18.18-.39.18h-22.88c-.22,0-.39-.08-.39-.18v-6.62c0-.1.18-.18.39-.18Z"/>
    <path class="cls-3" d="m2368.8,152.8h75.26c9.84,0,17.82,5.99,17.82,13.39v349.23c0,7.39-7.98,13.39-17.82,13.39h-76.13"/>
    <rect class="cls-19" x="1761.22" y="104.79" width="7" height="5.12"/>
    <polyline class="cls-19" points="1420.02 267.03 1420.02 398.45 1405.39 398.45 1405.39 267.03"/>
    <polyline class="cls-19" points="1405.39 234.35 1405.39 212.77 1420.02 212.77 1420.02 234.4"/>
    <polyline class="cls-19" points="1405.39 456.1 1405.39 434.94 1420.02 434.94 1420.02 456.15"/>
  </g>
</svg>