<svg fill="#fff" viewBox="0 0 512 512" xmlns="http://www.w3.org/2000/svg"><path d="m472.8 168.4c52.3 53 52.3 138.2 0 191.2l-112 113.3c-9.3 9.4-24.5 9.5-33.9.2-9.5-9.3-9.5-24.5-.2-34l111.9-113.2c33.9-34.3 33.9-89.5 0-123.8l-127.7-129.23c-9.4-9.43-9.3-24.62.2-33.94 9.4-9.32 24.6-9.23 33 .2zm-328.8-25.3c0 18.6-14.3 32-32 32-17.67 0-32-13.4-32-32 0-16.8 14.33-32 32-32 17.7 0 32 15.2 32 32zm266.7 75.6c25 25 25 65.6 0 90.6l-133.4 133.4c-25 25-65.6 25-90.6 0l-167.95-168c-12.007-12-18.75-28.2-18.75-45.2v-149.5c0-26.51 21.49-48 48-48h149.5c17 0 33.2 6.74 45.2 18.75zm-362.7-139.6v150.4c0 4.2 1.69 8.3 4.69 11.3l168.01 168c6.2 6.3 16.4 6.3 22.6 0l133.5-133.5c6.3-6.2 6.3-16.4 0-22.6l-168-168.01c-3-3-7.1-5.59-11.3-5.59z"/></svg>